<svg width="24" height="24" viewBox="0 0 24 24" fill="none" xmlns="http://www.w3.org/2000/svg">
<path d="M3.30775 19.5C2.80258 19.5 2.375 19.325 2.025 18.975C1.675 18.625 1.5 18.1974 1.5 17.6923V6.30775C1.5 5.80258 1.675 5.375 2.025 5.025C2.375 4.675 2.80258 4.5 3.30775 4.5H20.6923C21.1974 4.5 21.625 4.675 21.975 5.025C22.325 5.375 22.5 5.80258 22.5 6.30775V17.6923C22.5 18.1974 22.325 18.625 21.975 18.975C21.625 19.325 21.1974 19.5 20.6923 19.5H3.30775ZM6.577 14.9423H7.55375V9.05775H6.76925L5.077 10.2693L5.6 11.0345L6.577 10.3462V14.9423ZM9.65775 14.9423H13.4423V14.0577H11.0153L10.9845 13.9885C11.309 13.6872 11.5885 13.415 11.823 13.172C12.0577 12.9292 12.2705 12.709 12.4615 12.5115C12.7487 12.218 12.9608 11.926 13.098 11.6355C13.2352 11.3452 13.3038 11.0333 13.3038 10.7C13.3038 10.2295 13.1301 9.83817 12.7828 9.526C12.4353 9.21383 11.991 9.05775 11.45 9.05775C11.0487 9.05775 10.6794 9.17308 10.3423 9.40375C10.0051 9.63458 9.76667 9.93717 9.627 10.3115L10.5115 10.673C10.6013 10.4563 10.7302 10.2855 10.898 10.1605C11.066 10.0355 11.25 9.973 11.45 9.973C11.7192 9.973 11.9377 10.0445 12.1058 10.1875C12.2738 10.3305 12.3577 10.518 12.3577 10.75C12.3577 10.9462 12.3212 11.1234 12.248 11.2817C12.175 11.4401 12.0218 11.6423 11.7885 11.8885C11.5282 12.168 11.231 12.4715 10.897 12.799C10.5632 13.1267 10.1501 13.5334 9.65775 14.0192V14.9423ZM17 14.9423C17.568 14.9423 18.0273 14.7804 18.378 14.4567C18.7285 14.1331 18.9038 13.7142 18.9038 13.2C18.9038 12.868 18.8157 12.5869 18.6395 12.3568C18.4632 12.1266 18.2154 11.9577 17.8962 11.85V11.8C18.1551 11.6987 18.3544 11.5471 18.4943 11.3453C18.6339 11.1432 18.7038 10.891 18.7038 10.5885C18.7038 10.1385 18.54 9.77083 18.2125 9.4855C17.885 9.20033 17.4642 9.05775 16.95 9.05775C16.5077 9.05775 16.1298 9.17858 15.8163 9.42025C15.5029 9.66192 15.2898 9.92567 15.177 10.2115L16.0423 10.573C16.1154 10.3795 16.2334 10.226 16.3962 10.1125C16.5591 9.999 16.7437 9.94225 16.95 9.94225C17.1858 9.94225 17.3794 10.0096 17.5308 10.1443C17.6821 10.2789 17.7578 10.4475 17.7578 10.65C17.7578 10.8962 17.668 11.0923 17.4885 11.2385C17.309 11.3847 17.0795 11.4577 16.8 11.4577H16.4078V12.3423H16.85C17.2025 12.3423 17.4753 12.4138 17.6683 12.5568C17.8613 12.6997 17.9578 12.8975 17.9578 13.15C17.9578 13.3858 17.8613 13.591 17.6683 13.7655C17.4753 13.9398 17.2525 14.027 17 14.027C16.7167 14.027 16.492 13.9645 16.326 13.8395C16.16 13.7145 16.0154 13.5001 15.8923 13.1962L15.027 13.5385C15.1565 13.9833 15.394 14.3285 15.7395 14.574C16.085 14.8195 16.5052 14.9423 17 14.9423ZM3.30775 18H20.6923C20.7821 18 20.8558 17.9712 20.9135 17.9135C20.9712 17.8558 21 17.7821 21 17.6923V6.30775C21 6.21792 20.9712 6.14417 20.9135 6.0865C20.8558 6.02883 20.7821 6 20.6923 6H3.30775C3.21792 6 3.14417 6.02883 3.0865 6.0865C3.02883 6.14417 3 6.21792 3 6.30775V17.6923C3 17.7821 3.02883 17.8558 3.0865 17.9135C3.14417 17.9712 3.21792 18 3.30775 18Z" fill="#121615"/>
</svg>
