<svg width="24" height="24" viewBox="0 0 24 24" fill="none" xmlns="http://www.w3.org/2000/svg">
<path d="M14 15.25L20 15.25V16.75L14 16.75V15.25Z" fill="#121615"/>
<path fill-rule="evenodd" clip-rule="evenodd" d="M9.75 9C9.75 9.71224 9.47923 10.3612 9.03502 10.8497C10.0671 11.5177 10.75 12.6791 10.75 14C10.75 14.4142 10.4142 14.75 10 14.75C9.58579 14.75 9.25 14.4142 9.25 14C9.25 12.7574 8.24264 11.75 7 11.75C5.75736 11.75 4.75 12.7574 4.75 14C4.75 14.4142 4.41421 14.75 4 14.75C3.58579 14.75 3.25 14.4142 3.25 14C3.25 12.6791 3.93294 11.5177 4.96498 10.8497C4.52077 10.3612 4.25 9.71224 4.25 9C4.25 7.48122 5.48122 6.25 7 6.25C8.51878 6.25 9.75 7.48122 9.75 9ZM7 7.75C6.30964 7.75 5.75 8.30964 5.75 9C5.75 9.69036 6.30964 10.25 7 10.25C7.69036 10.25 8.25 9.69036 8.25 9C8.25 8.30964 7.69036 7.75 7 7.75Z" fill="#121615"/>
<path fill-rule="evenodd" clip-rule="evenodd" d="M0.25 7C0.25 4.92893 1.92893 3.25 4 3.25H20C22.0711 3.25 23.75 4.92893 23.75 7V17C23.75 19.0711 22.0711 20.75 20 20.75H4C1.92893 20.75 0.25 19.0711 0.25 17V7ZM4 4.75C2.75736 4.75 1.75 5.75736 1.75 7V17C1.75 18.2426 2.75736 19.25 4 19.25H20C21.2426 19.25 22.25 18.2426 22.25 17V7C22.25 5.75736 21.2426 4.75 20 4.75H4Z" fill="#121615"/>
</svg>
