<svg width="24" height="24" viewBox="0 0 24 24" fill="none" xmlns="http://www.w3.org/2000/svg">
<path fill-rule="evenodd" clip-rule="evenodd" d="M12 1.25C9.1005 1.25 6.75 3.60051 6.75 6.5C6.75 9.3995 9.1005 11.75 12 11.75C14.8995 11.75 17.25 9.3995 17.25 6.5C17.25 3.60051 14.8995 1.25 12 1.25ZM8.25 6.5C8.25 4.42893 9.92893 2.75 12 2.75C14.0711 2.75 15.75 4.42893 15.75 6.5C15.75 8.57107 14.0711 10.25 12 10.25C9.92893 10.25 8.25 8.57107 8.25 6.5Z" fill="#121615"/>
<path fill-rule="evenodd" clip-rule="evenodd" d="M19.7572 14.9018C16.8288 13.9471 14.329 13.4544 11.8483 13.4509C9.36542 13.4474 6.94435 13.9341 4.17316 14.8855C2.68493 15.3965 1.75 16.8146 1.75 18.347V21C1.75 21.4142 2.08579 21.75 2.5 21.75H21.5C21.9142 21.75 22.25 21.4142 22.25 21V18.3945C22.25 16.8312 21.2769 15.3973 19.7572 14.9018ZM4.66025 16.3042C7.32199 15.3904 9.57387 14.9477 11.8462 14.9509C14.1208 14.9541 16.4585 15.404 19.2922 16.3279C20.1615 16.6114 20.75 17.445 20.75 18.3945V20.25H3.25V18.347C3.25 17.4137 3.81635 16.594 4.66025 16.3042Z" fill="#121615"/>
</svg>
