<svg width="40" height="40" viewBox="0 0 40 40" fill="none" xmlns="http://www.w3.org/2000/svg">
<rect width="40" height="40" rx="20" fill="#B5572A"/>
<path d="M10.619 10.6461C10.2622 10.4357 10.1436 9.97592 10.354 9.61913C10.5644 9.26234 11.0242 9.14368 11.381 9.35409L17.4085 12.9088C17.8003 13.1398 18.2867 13.1398 18.6785 12.9088L20.5596 11.7994C21.4215 11.2911 22.4915 11.2911 23.3535 11.7994L28.25 14.6871V13.5001C28.25 13.0859 28.5858 12.7501 29 12.7501C29.4142 12.7501 29.75 13.0859 29.75 13.5001V15.9875L29.7501 16.0008L29.75 16.0142V17.2501H26C25.5858 17.2501 25.25 16.9143 25.25 16.5001C25.25 16.0859 25.5858 15.7501 26 15.7501H27.0997L22.5915 13.0915C22.1997 12.8604 21.7133 12.8604 21.3215 13.0915L19.4404 14.2008C18.5785 14.7092 17.5085 14.7092 16.6465 14.2008L10.619 10.6461Z" fill="white"/>
<path fill-rule="evenodd" clip-rule="evenodd" d="M9.25 16.25H15.75V19.25H19.25V18.25H25.75V21.25H30.75V29.75H9.25V16.25ZM24.25 28.25V19.75H20.75V28.25H24.25ZM25.75 28.25H29.25V22.75H25.75V28.25ZM15.75 20.75H19.25V28.25H15.75V20.75ZM14.25 28.25V17.75H10.75V28.25H14.25Z" fill="white"/>
</svg>
