<svg width="24" height="24" viewBox="0 0 24 24" fill="none" xmlns="http://www.w3.org/2000/svg">
<path d="M7.50347 1.14442C8.92904 0.553923 10.457 0.25 12 0.25H13.5364C14.4399 0.25 14.9215 1.31538 14.3246 1.99366L12.563 3.99547L11.437 3.00453L12.541 1.75H12C10.6539 1.75 9.32108 2.01512 8.07749 2.53023C6.83391 3.04535 5.70396 3.80036 4.75215 4.75216C3.80035 5.70396 3.04534 6.83391 2.53023 8.0775C2.01512 9.32108 1.75 10.654 1.75 12H0.25C0.25 10.457 0.553922 8.92905 1.14441 7.50347C1.73491 6.0779 2.60041 4.78258 3.69149 3.6915C4.78258 2.60041 6.07789 1.73491 7.50347 1.14442Z" fill="#121615"/>
<path d="M9 8.25C8.58579 8.25 8.25 8.58579 8.25 9C8.25 9.41421 8.58579 9.75 9 9.75H12C12.4142 9.75 12.75 9.41421 12.75 9C12.75 8.58579 12.4142 8.25 12 8.25H9Z" fill="#121615"/>
<path fill-rule="evenodd" clip-rule="evenodd" d="M10.75 17.25H12.75V18.75H14.7457C15.527 18.75 16.2137 18.232 16.4284 17.4808L17.1305 15.0233L18.2826 14.4472C18.8755 14.1508 19.25 13.5448 19.25 12.882V10.5C19.25 9.5335 18.4665 8.75 17.5 8.75H17.375L16.3012 7.31827L16.9149 4.25H15.3541C13.9611 4.25 12.6853 5.02187 12.0375 6.25H9.17182C6.72972 6.25 4.75 8.22971 4.75 10.6718C4.75 11.2956 4.84327 11.9159 5.02672 12.5121L6.56596 17.5147C6.7919 18.2489 7.47032 18.75 8.23857 18.75H10.75V17.25ZM13.3416 6.99377C13.6817 6.31355 14.3388 5.85691 15.0819 5.76649L14.6988 7.68173L16.625 10.25H17.5C17.6381 10.25 17.75 10.3619 17.75 10.5V12.882C17.75 12.9767 17.6965 13.0632 17.6118 13.1056L15.8695 13.9767L14.9861 17.0687C14.9554 17.176 14.8573 17.25 14.7457 17.25H14.25V15.75H9.25V17.25H8.23857C8.12882 17.25 8.03191 17.1784 7.99963 17.0735L6.46039 12.071C6.32092 11.6177 6.25 11.1461 6.25 10.6718C6.25 9.05814 7.55814 7.75 9.17182 7.75H12.9635L13.3416 6.99377Z" fill="#121615"/>
<path d="M12 23.75C13.543 23.75 15.071 23.4461 16.4965 22.8556C17.9221 22.2651 19.2174 21.3996 20.3085 20.3085C21.3996 19.2174 22.2651 17.9221 22.8556 16.4965C23.4461 15.0709 23.75 13.543 23.75 12H22.25C22.25 13.346 21.9849 14.6789 21.4698 15.9225C20.9547 17.1661 20.1997 18.296 19.2479 19.2478C18.2961 20.1996 17.1661 20.9546 15.9225 21.4698C14.6789 21.9849 13.3461 22.25 12 22.25H11.4591L12.563 20.9955L11.437 20.0045L9.67538 22.0063C9.07849 22.6846 9.56012 23.75 10.4636 23.75H12Z" fill="#121615"/>
</svg>
