<svg width="24" height="24" viewBox="0 0 24 24" fill="none" xmlns="http://www.w3.org/2000/svg">
<path d="M4.25 16C4.25 15.5858 4.58579 15.25 5 15.25H11C11.4142 15.25 11.75 15.5858 11.75 16C11.75 16.4142 11.4142 16.75 11 16.75H5C4.58579 16.75 4.25 16.4142 4.25 16Z" fill="#121615"/>
<path d="M17 15.25C16.5858 15.25 16.25 15.5858 16.25 16C16.25 16.4142 16.5858 16.75 17 16.75H19C19.4142 16.75 19.75 16.4142 19.75 16C19.75 15.5858 19.4142 15.25 19 15.25H17Z" fill="#121615"/>
<path fill-rule="evenodd" clip-rule="evenodd" d="M4 4.25C2.48122 4.25 1.25 5.48122 1.25 7V17C1.25 18.5188 2.48122 19.75 4 19.75H20C21.5188 19.75 22.75 18.5188 22.75 17V7C22.75 5.48122 21.5188 4.25 20 4.25H4ZM21.25 8.25V7C21.25 6.30964 20.6904 5.75 20 5.75H4C3.30964 5.75 2.75 6.30964 2.75 7V8.25H21.25ZM2.75 9.75H21.25V17C21.25 17.6904 20.6904 18.25 20 18.25H4C3.30964 18.25 2.75 17.6904 2.75 17V9.75Z" fill="#121615"/>
</svg>
