<svg width="24" height="24" viewBox="0 0 24 24" fill="none" xmlns="http://www.w3.org/2000/svg">
<path fill-rule="evenodd" clip-rule="evenodd" d="M20.926 1L1.72223 4.38614L2.15054 6.81523H0V20.3152H12V18.8152H1.5V8.31523H18V11H19.5V6.81523H3.67368L3.45991 5.60288L19.7092 2.73768L21.1661 11H22.6892L20.926 1ZM12 13.5652C12 12.3226 10.9926 11.3152 9.75 11.3152C8.50736 11.3152 7.5 12.3226 7.5 13.5652C7.5 14.8079 8.50736 15.8152 9.75 15.8152C10.9926 15.8152 12 14.8079 12 13.5652ZM5.75 11.3152H2.75V9.81524H5.75V11.3152ZM9 13.5652C9 13.151 9.33579 12.8152 9.75 12.8152C10.1642 12.8152 10.5 13.151 10.5 13.5652C10.5 13.9794 10.1642 14.3152 9.75 14.3152C9.33579 14.3152 9 13.9794 9 13.5652Z" fill="#121615"/>
<path d="M15.6968 14.5532C16.111 14.5532 16.4468 14.889 16.4468 15.3032L16.4468 18.4926L21.1664 13.7729C21.4593 13.48 21.9342 13.48 22.2271 13.7729C22.52 14.0658 22.52 14.5407 22.2271 14.8336L17.5074 19.5532L20.6968 19.5532C21.111 19.5532 21.4468 19.889 21.4468 20.3032C21.4468 20.7174 21.111 21.0532 20.6968 21.0532L16.6968 21.0532C15.7303 21.0532 14.9468 20.2697 14.9468 19.3032L14.9468 15.3032C14.9468 14.889 15.2826 14.5532 15.6968 14.5532Z" fill="#121615"/>
<path fill-rule="evenodd" clip-rule="evenodd" d="M20.926 1L1.72223 4.38614L2.15054 6.81523H0V20.3152H12V18.8152H1.5V8.31523H18V11H19.5V6.81523H3.67368L3.45991 5.60288L19.7092 2.73768L21.1661 11H22.6892L20.926 1ZM12 13.5652C12 12.3226 10.9926 11.3152 9.75 11.3152C8.50736 11.3152 7.5 12.3226 7.5 13.5652C7.5 14.8079 8.50736 15.8152 9.75 15.8152C10.9926 15.8152 12 14.8079 12 13.5652ZM5.75 11.3152H2.75V9.81524H5.75V11.3152ZM9 13.5652C9 13.151 9.33579 12.8152 9.75 12.8152C10.1642 12.8152 10.5 13.151 10.5 13.5652C10.5 13.9794 10.1642 14.3152 9.75 14.3152C9.33579 14.3152 9 13.9794 9 13.5652Z" fill="#121615"/>
<path d="M15.6968 14.5533C16.111 14.5533 16.4468 14.889 16.4468 15.3033V18.4926L21.1664 13.7729C21.4593 13.48 21.9342 13.48 22.2271 13.7729C22.52 14.0658 22.52 14.5407 22.2271 14.8336L17.5074 19.5533H20.6968C21.111 19.5533 21.4468 19.889 21.4468 20.3033C21.4468 20.7175 21.111 21.0533 20.6968 21.0533H16.6968C15.7303 21.0533 14.9468 20.2698 14.9468 19.3033L14.9468 15.3033C14.9468 14.889 15.2826 14.5533 15.6968 14.5533Z" fill="#121615"/>
</svg>
