<svg width="24" height="24" viewBox="0 0 24 24" fill="none" xmlns="http://www.w3.org/2000/svg">
<path fill-rule="evenodd" clip-rule="evenodd" d="M7.75 15C7.75 13.7574 8.75736 12.75 10 12.75C11.2426 12.75 12.25 13.7574 12.25 15C12.25 16.2427 11.2426 17.25 10 17.25C8.75736 17.25 7.75 16.2427 7.75 15ZM10 14.25C9.58579 14.25 9.25 14.5858 9.25 15C9.25 15.4143 9.58579 15.75 10 15.75C10.4142 15.75 10.75 15.4143 10.75 15C10.75 14.5858 10.4142 14.25 10 14.25Z" fill="#121615"/>
<path d="M14 18.75H17V17.25H14V18.75Z" fill="#121615"/>
<path d="M6 12.75H3V11.25H6V12.75Z" fill="#121615"/>
<path fill-rule="evenodd" clip-rule="evenodd" d="M1.97223 5.82095L21.176 2.43481L23.5202 15.7297L19.75 16.3945V21.75H0.25V8.25005H2.40054L1.97223 5.82095ZM3.92368 8.25005H19.75V14.8714L21.7825 14.513L19.9592 4.1725L3.70991 7.03769L3.92368 8.25005ZM1.75 9.75005V20.25H18.25V9.75005H1.75Z" fill="#121615"/>
</svg>
