<svg width="25" height="24" viewBox="0 0 25 24" fill="none" xmlns="http://www.w3.org/2000/svg">
<path d="M11.0814 2.75594C11.4209 2.76811 11.7587 2.79894 12.0933 2.84806L12.3111 1.36396C11.8042 1.28954 11.291 1.25124 10.7754 1.25003C10.746 1.24996 10.7167 1.25001 10.6874 1.25018C8.94075 1.26035 7.22046 1.69606 5.67662 2.52249C4.00097 3.41948 2.59308 4.74469 1.59646 6.36306C0.599828 7.98143 0.0500886 9.83511 0.00326363 11.7352C-0.0435613 13.6352 0.414203 15.5137 1.3299 17.1792C2.2456 18.8447 3.5865 20.2377 5.21593 21.2161C6.84536 22.1945 8.70508 22.7235 10.6055 22.749C12.506 22.7746 14.3793 22.2958 16.0344 21.3615C17.6895 20.4272 19.0674 19.0708 20.0275 17.4305C20.3023 16.961 20.5401 16.473 20.7397 15.9709L19.3458 15.4168C19.1597 15.8851 18.9349 16.3391 18.6729 16.774C17.8498 18.14 16.687 19.2706 15.297 20.0552C13.8728 20.8592 12.261 21.2711 10.6257 21.2492C8.99042 21.2272 7.3902 20.7721 5.98813 19.9301C4.58606 19.0882 3.43226 17.8896 2.64433 16.4565C1.85641 15.0234 1.46252 13.407 1.50281 11.7721C1.5431 10.1372 2.01613 8.54216 2.87369 7.14961C3.73126 5.75706 4.94269 4.61676 6.38453 3.84493C7.6792 3.15189 9.11808 2.77818 10.5816 2.75153C10.7485 2.74849 10.9152 2.74998 11.0814 2.75594Z" fill="#121615"/>
<path d="M13.9276 3.31293C14.4008 3.48602 14.8609 3.69814 15.3029 3.94804C15.7448 4.19795 16.1637 4.48282 16.556 4.7991L17.4975 3.63139C17.0416 3.26382 16.5548 2.93274 16.0412 2.64232C15.5275 2.3519 14.9929 2.10538 14.4429 1.90421L13.9276 3.31293Z" fill="#121615"/>
<path d="M17.8999 6.1313C18.2196 6.52078 18.5081 6.93719 18.7619 7.37695C19.0156 7.81672 19.2317 8.27489 19.409 8.74658L20.8131 8.21901C20.6072 7.67082 20.356 7.13834 20.0611 6.62727C19.7662 6.1162 19.4309 5.63227 19.0593 5.17962L17.8999 6.1313Z" fill="#121615"/>
<path d="M19.8899 10.5768C19.9674 11.0747 20.0044 11.5799 19.9996 12.0876C19.9948 12.5953 19.9482 13.0998 19.8613 13.5961L21.3388 13.8549C21.4398 13.2781 21.4939 12.6918 21.4995 12.1018C21.5051 11.5118 21.4621 10.9246 21.372 10.346L19.8899 10.5768Z" fill="#121615"/>
<path d="M9.35065 7.60714H10.1429V6H11.6429V7.60714H12.3258C13.2104 7.60714 14.0554 8.06508 14.4815 8.84622C14.6798 9.20985 14.5458 9.66543 14.1822 9.86378C13.8186 10.0621 13.363 9.92813 13.1646 9.5645C13.0236 9.30595 12.7094 9.10714 12.3258 9.10714H9.35065C8.68002 9.10714 8.25 9.59097 8.25 10.0536C8.25 10.5162 8.68002 11 9.35065 11H12.4351C13.8086 11 15.0357 12.0352 15.0357 13.4464C15.0357 14.8576 13.8086 15.8929 12.4351 15.8929H11.6429V17.5H10.1429V15.8929H9.19189C8.5222 15.8929 7.86821 15.6496 7.37649 15.1988L6.99321 14.8475C6.68787 14.5676 6.66724 14.0932 6.94714 13.7878C7.22703 13.4825 7.70146 13.4619 8.0068 13.7418L8.39008 14.0931C8.59249 14.2787 8.87994 14.3929 9.19189 14.3929H12.4351C13.1057 14.3929 13.5357 13.909 13.5357 13.4464C13.5357 12.9838 13.1057 12.5 12.4351 12.5H9.35065C7.97712 12.5 6.75 11.4648 6.75 10.0536C6.75 8.64235 7.97712 7.60714 9.35065 7.60714Z" fill="#121615"/>
<path fill-rule="evenodd" clip-rule="evenodd" d="M23.8962 11.2815C23.6374 10.958 23.1655 10.9056 22.842 11.1643L20.8105 12.7895L18.7791 11.1643C18.4556 10.9056 17.9837 10.958 17.7249 11.2815C17.4661 11.6049 17.5186 12.0769 17.842 12.3357L20.342 14.3357C20.6159 14.5548 21.0052 14.5548 21.2791 14.3357L23.7791 12.3357C24.1025 12.0769 24.155 11.6049 23.8962 11.2815Z" fill="#121615"/>
</svg>
