<svg width="24" height="24" viewBox="0 0 24 24" fill="none" xmlns="http://www.w3.org/2000/svg">
<path d="M11.7651 0.25C7.08449 0.25 3.32036 4.10089 3.42702 8.78024C3.45964 10.2116 3.86017 11.6104 4.59005 12.8421L4.69603 13.0209C5.39562 14.2015 5.94061 15.467 6.31761 16.7865L6.72319 18.206L8.16547 17.794L7.7599 16.3744C7.3476 14.9314 6.75157 13.5473 5.98647 12.2562L5.88049 12.0774C5.28188 11.0672 4.95338 9.91996 4.92663 8.74607C4.83916 4.9083 7.9263 1.75 11.7651 1.75H12.2347C16.0735 1.75 19.1606 4.9083 19.0731 8.74607C19.0464 9.91996 18.7179 11.0672 18.1193 12.0774L18.0133 12.2562C17.2482 13.5473 16.6522 14.9314 16.2399 16.3744L15.8343 17.794L17.2766 18.206L17.6822 16.7865C18.0592 15.467 18.6041 14.2015 19.3037 13.0209L19.4097 12.8421C20.1396 11.6104 20.5401 10.2116 20.5728 8.78024C20.6794 4.10089 16.9153 0.25 12.2347 0.25H11.7651Z" fill="#121615"/>
<path fill-rule="evenodd" clip-rule="evenodd" d="M12.4999 23.75C14.0187 23.75 15.2499 22.5188 15.2499 21V20.75H16.9999C17.4141 20.75 17.7499 20.4142 17.7499 20C17.7499 19.5858 17.4141 19.25 16.9999 19.25H6.99988C6.58567 19.25 6.24988 19.5858 6.24988 20C6.24988 20.4142 6.58567 20.75 6.99988 20.75H8.74988V21C8.74988 22.5188 9.9811 23.75 11.4999 23.75H12.4999ZM10.2499 21V20.75H13.7499V21C13.7499 21.6904 13.1902 22.25 12.4999 22.25H11.4999C10.8095 22.25 10.2499 21.6904 10.2499 21Z" fill="#121615"/>
<path d="M10.5302 8.96967C10.2373 8.67678 9.76245 8.67678 9.46955 8.96967C9.17666 9.26256 9.17666 9.73744 9.46955 10.0303L11.2499 11.8107V17H12.7499V11.8107L14.5302 10.0303C14.8231 9.73744 14.8231 9.26256 14.5302 8.96967C14.2373 8.67678 13.7624 8.67678 13.4696 8.96967L11.9999 10.4393L10.5302 8.96967Z" fill="#121615"/>
</svg>
