<svg width="24" height="24" viewBox="0 0 24 24" fill="none" xmlns="http://www.w3.org/2000/svg">
<path fill-rule="evenodd" clip-rule="evenodd" d="M2 6.25H6.32501C6.67247 4.53832 8.18578 3.25 10 3.25C11.8142 3.25 13.3275 4.53832 13.675 6.25H22C22.4142 6.25 22.75 6.58579 22.75 7C22.75 7.41421 22.4142 7.75 22 7.75H13.675C13.3275 9.46168 11.8142 10.75 10 10.75C8.18578 10.75 6.67247 9.46168 6.32501 7.75H2C1.58579 7.75 1.25 7.41421 1.25 7C1.25 6.58579 1.58579 6.25 2 6.25ZM10 4.75C8.75736 4.75 7.75 5.75736 7.75 7C7.75 8.24264 8.75736 9.25 10 9.25C11.2426 9.25 12.25 8.24264 12.25 7C12.25 5.75736 11.2426 4.75 10 4.75Z" fill="#121615"/>
<path fill-rule="evenodd" clip-rule="evenodd" d="M2 16.25C1.58579 16.25 1.25 16.5858 1.25 17C1.25 17.4142 1.58579 17.75 2 17.75H12.325C12.6725 19.4617 14.1858 20.75 16 20.75C17.8142 20.75 19.3275 19.4617 19.675 17.75H22C22.4142 17.75 22.75 17.4142 22.75 17C22.75 16.5858 22.4142 16.25 22 16.25H19.675C19.3275 14.5383 17.8142 13.25 16 13.25C14.1858 13.25 12.6725 14.5383 12.325 16.25H2ZM18.25 17C18.25 15.7574 17.2426 14.75 16 14.75C14.7574 14.75 13.75 15.7574 13.75 17C13.75 18.2426 14.7574 19.25 16 19.25C17.2426 19.25 18.25 18.2426 18.25 17Z" fill="#121615"/>
</svg>
