<svg width="24" height="24" viewBox="0 0 24 24" fill="none" xmlns="http://www.w3.org/2000/svg">
<path fill-rule="evenodd" clip-rule="evenodd" d="M7.75 3.25V2H6.25V3.25H6C3.92893 3.25 2.25 4.92893 2.25 7V9V17C2.25 19.0711 3.92893 20.75 6 20.75H18C20.0711 20.75 21.75 19.0711 21.75 17V9V7C21.75 4.92893 20.0711 3.25 18 3.25H17.75V2H16.25V3.25H7.75ZM6.25 4.75V6H7.75V4.75H16.25V6H17.75V4.75H18C19.2426 4.75 20.25 5.75736 20.25 7V8.25H3.75V7C3.75 5.75736 4.75736 4.75 6 4.75H6.25ZM3.75 9.75V17C3.75 18.2426 4.75736 19.25 6 19.25H18C19.2426 19.25 20.25 18.2426 20.25 17V9.75H3.75Z" fill="black"/>
</svg>
