<svg width="16" height="16" viewBox="0 0 16 16" fill="none" xmlns="http://www.w3.org/2000/svg">
<path fill-rule="evenodd" clip-rule="evenodd" d="M8.75 1C8.75 0.585786 8.41422 0.25 8 0.25C7.58579 0.25 7.25 0.585786 7.25 1V2.25H5.72728C3.8696 2.25 2.25 3.64498 2.25 5.5C2.25 7.35502 3.8696 8.75 5.72728 8.75H10.2727C11.4275 8.75 12.25 9.5936 12.25 10.5C12.25 11.4064 11.4275 12.25 10.2727 12.25H8.75V10H7.25V12.25H5.49331C4.94887 12.25 4.43844 12.0511 4.07163 11.7149L3.5068 11.1971C3.20146 10.9172 2.72703 10.9379 2.44714 11.2432C2.16724 11.5485 2.18787 12.023 2.49321 12.3029L3.05805 12.8206C3.71417 13.4221 4.59113 13.75 5.49331 13.75H7.25V15C7.25 15.4142 7.58579 15.75 8 15.75C8.41422 15.75 8.75 15.4142 8.75 15V13.75H10.2727C12.1304 13.75 13.75 12.355 13.75 10.5C13.75 8.64498 12.1304 7.25 10.2727 7.25L8.75 7.25L8.75 3.75H10.1118C10.7957 3.75 11.3844 4.10435 11.6598 4.60914C11.8581 4.97278 12.3137 5.10677 12.6773 4.90842C13.041 4.71007 13.175 4.2545 12.9766 3.89086C12.4162 2.86348 11.2966 2.25 10.1118 2.25H8.75V1ZM5.72728 3.75H7.25L7.25 7.25H5.72728C4.5725 7.25 3.75 6.4064 3.75 5.5C3.75 4.5936 4.57249 3.75 5.72728 3.75Z" fill="#121615"/>
</svg>
