<svg width="16" height="16" viewBox="0 0 16 16" fill="none" xmlns="http://www.w3.org/2000/svg">
<path fill-rule="evenodd" clip-rule="evenodd" d="M1.75 4C1.75 2.48122 2.98122 1.25 4.5 1.25C6.01878 1.25 7.25 2.48122 7.25 4V5C7.25 6.51878 6.01878 7.75 4.5 7.75C2.98122 7.75 1.75 6.51878 1.75 5V4ZM4.5 2.75C3.80964 2.75 3.25 3.30964 3.25 4V5C3.25 5.69036 3.80964 6.25 4.5 6.25C5.19036 6.25 5.75 5.69036 5.75 5V4C5.75 3.30964 5.19036 2.75 4.5 2.75Z" fill="#121615"/>
<path d="M1.96967 12.9697L12.9697 1.96967L14.0303 3.03033L3.03033 14.0303L1.96967 12.9697Z" fill="#121615"/>
<path fill-rule="evenodd" clip-rule="evenodd" d="M11.4999 8.25C9.98116 8.25 8.74994 9.48122 8.74994 11V12C8.74994 13.5188 9.98116 14.75 11.4999 14.75C13.0187 14.75 14.2499 13.5188 14.2499 12V11C14.2499 9.48122 13.0187 8.25 11.4999 8.25ZM10.2499 11C10.2499 10.3096 10.8096 9.75 11.4999 9.75C12.1903 9.75 12.7499 10.3096 12.7499 11V12C12.7499 12.6904 12.1903 13.25 11.4999 13.25C10.8096 13.25 10.2499 12.6904 10.2499 12V11Z" fill="#121615"/>
</svg>
