<svg width="24" height="24" viewBox="0 0 24 24" fill="none" xmlns="http://www.w3.org/2000/svg">
<path fill-rule="evenodd" clip-rule="evenodd" d="M16.9375 3.73436C16.254 3.05095 15.146 3.05095 14.4626 3.73436L4.15115 14.0458C4.14276 14.0538 4.13453 14.062 4.12648 14.0705L3.73466 14.4623C3.21893 14.978 2.9292 15.6775 2.9292 16.4068L2.9292 19.821C2.9292 20.2353 3.26499 20.571 3.6792 20.571L7.09341 20.571C7.82276 20.571 8.52223 20.2813 9.03796 19.7656L9.43001 19.3735C9.43839 19.3655 9.44655 19.3574 9.4545 19.349L19.7659 9.03767C20.4493 8.35425 20.4493 7.24621 19.7659 6.56279L16.9375 3.73436ZM4.79532 15.5229L4.81861 15.4997C5.6278 15.9187 6.18588 16.311 6.65064 16.7823C7.12129 17.2595 7.52497 17.8464 7.98899 18.6932L7.9773 18.7049C7.74288 18.9393 7.42493 19.071 7.09341 19.071L4.4292 19.071L4.4292 16.4068C4.4292 16.0753 4.5609 15.7574 4.79532 15.5229ZM7.71862 15.729C8.23633 16.2539 8.66488 16.8577 9.09035 17.5919L16.7607 9.92155L13.5787 6.73957L5.92552 14.3927C6.63104 14.7906 7.2081 15.2113 7.71862 15.729ZM17.8213 8.86089L18.7052 7.97701C18.8028 7.87937 18.8028 7.72108 18.7052 7.62345L15.8768 4.79502C15.7792 4.69739 15.6209 4.69739 15.5232 4.79502L14.6394 5.67891L17.8213 8.86089Z" fill="#121615"/>
<path d="M12.0003 19.2501C11.5861 19.2501 11.2503 19.5859 11.2503 20.0001C11.2503 20.4143 11.5861 20.7501 12.0003 20.7501L22.0003 20.7501C22.4145 20.7501 22.7503 20.4143 22.7503 20.0001C22.7503 19.5859 22.4145 19.2501 22.0003 19.2501L12.0003 19.2501Z" fill="#121615"/>
</svg>
