<svg width="24" height="24" viewBox="0 0 24 24" fill="none" xmlns="http://www.w3.org/2000/svg">
<path fill-rule="evenodd" clip-rule="evenodd" d="M11.1818 2.25C6.24891 2.25 2.25 6.24891 2.25 11.1818V13C2.25 17.8325 6.16751 21.75 11 21.75H16.0909V20.25H11C6.99594 20.25 3.75 17.0041 3.75 13V11.1818C3.75 7.07734 7.07734 3.75 11.1818 3.75H13.6364C17.289 3.75 20.25 6.71103 20.25 10.3636V14C20.25 14.9665 19.4665 15.75 18.5 15.75C17.5335 15.75 16.75 14.9665 16.75 14V12C16.75 9.37665 14.6234 7.25 12 7.25C9.37665 7.25 7.25 9.37665 7.25 12C7.25 14.6234 9.37665 16.75 12 16.75C13.3789 16.75 14.6206 16.1624 15.4884 15.224C15.9718 16.4123 17.1381 17.25 18.5 17.25C20.2949 17.25 21.75 15.7949 21.75 14V10.3636C21.75 5.8826 18.1174 2.25 13.6364 2.25H11.1818ZM15.25 12C15.25 10.2051 13.7949 8.75 12 8.75C10.2051 8.75 8.75 10.2051 8.75 12C8.75 13.7949 10.2051 15.25 12 15.25C13.7949 15.25 15.25 13.7949 15.25 12Z" fill="#121615"/>
</svg>
