<svg width="24" height="24" viewBox="0 0 24 24" fill="none" xmlns="http://www.w3.org/2000/svg">
<path fill-rule="evenodd" clip-rule="evenodd" d="M8.2502 5C8.2502 4.0335 9.0337 3.25 10.0002 3.25H14.0002C14.9667 3.25 15.7502 4.0335 15.7502 5V6.25H19.0002C20.519 6.25 21.7502 7.48122 21.7502 9V11.9825C21.7505 11.9942 21.7505 12.0058 21.7502 12.0174V18C21.7502 19.5188 20.519 20.75 19.0002 20.75H5.0002C3.48142 20.75 2.2502 19.5188 2.2502 18V12.0171C2.24993 12.0056 2.24993 11.9941 2.2502 11.9825V9C2.2502 7.48122 3.48142 6.25 5.0002 6.25H8.2502V5ZM3.7502 13.0906V18C3.7502 18.6904 4.30984 19.25 5.0002 19.25H19.0002C19.6906 19.25 20.2502 18.6904 20.2502 18V13.0543C16.9477 14.1712 14.3078 14.75 11.7192 14.75C9.15845 14.75 6.69994 14.1838 3.7502 13.0906ZM20.2502 11.4686C16.784 12.6719 14.1944 13.25 11.7192 13.25C9.25751 13.25 6.85075 12.6781 3.7502 11.4873V9C3.7502 8.30964 4.30984 7.75 5.0002 7.75H19.0002C19.6906 7.75 20.2502 8.30964 20.2502 9V11.4686ZM14.2502 5V6.25H9.7502V5C9.7502 4.86193 9.86213 4.75 10.0002 4.75H14.0002C14.1383 4.75 14.2502 4.86193 14.2502 5Z" fill="#121615"/>
</svg>
