<svg width="24" height="24" viewBox="0 0 24 24" fill="none" xmlns="http://www.w3.org/2000/svg">
<g clip-path="url(#clip0_2166_27264)">
<path fill-rule="evenodd" clip-rule="evenodd" d="M9.25011 2.42901C9.25011 2.25543 9.07756 2.13468 8.91448 2.19414L4.91448 3.65247C4.81578 3.68845 4.75011 3.7823 4.75011 3.88735V8.81351C4.7767 8.88377 4.80003 8.95601 4.81989 9.03012C5.14151 10.2304 4.4292 11.4642 3.2289 11.7858C2.0286 12.1074 0.794841 11.3951 0.473221 10.1948C0.151602 8.9945 0.863913 7.76075 2.06421 7.43913C2.4677 7.33101 2.87498 7.33973 3.25011 7.44456V3.88735C3.25011 3.152 3.70982 2.49509 4.40069 2.24321L8.40069 0.784876C9.54224 0.368684 10.7501 1.21395 10.7501 2.42901V6.87493C10.8633 7.05773 10.952 7.25997 11.0106 7.47836C11.3322 8.67866 10.6199 9.91242 9.41957 10.234C8.21927 10.5557 6.98551 9.84334 6.6639 8.64305C6.34228 7.44275 7.05459 6.20899 8.25489 5.88737C8.59092 5.79733 8.92958 5.78833 9.25011 5.84838V2.42901ZM8.11278 8.25482C8.00558 7.85472 8.24301 7.44346 8.64311 7.33626C9.04321 7.22905 9.45447 7.46649 9.56167 7.86659C9.66888 8.26669 9.43144 8.67794 9.03134 8.78515C8.63124 8.89235 8.21999 8.65492 8.11278 8.25482ZM2.45244 8.88802C2.05234 8.99522 1.8149 9.40648 1.92211 9.80657C2.02932 10.2067 2.44057 10.4441 2.84067 10.3369C3.24077 10.2297 3.47821 9.81845 3.371 9.41835C3.26379 9.01825 2.85254 8.78081 2.45244 8.88802Z" fill="black"/>
<path fill-rule="evenodd" clip-rule="evenodd" d="M15.2501 15C15.2501 14.0335 16.0336 13.25 17.0001 13.25H19.0001C19.9666 13.25 20.7501 14.0335 20.7501 15V15.25H21.0001C22.5189 15.25 23.7501 16.4813 23.7501 18V20C23.7501 21.5188 22.5189 22.75 21.0001 22.75H15.0001C13.4813 22.75 12.2501 21.5188 12.2501 20V18C12.2501 16.4813 13.4813 15.25 15.0001 15.25H15.2501V15ZM19.2501 15V15.25H16.7501V15C16.7501 14.862 16.862 14.75 17.0001 14.75H19.0001C19.1382 14.75 19.2501 14.862 19.2501 15ZM15.0001 16.75C14.3098 16.75 13.7501 17.3097 13.7501 18V20C13.7501 20.6904 14.3098 21.25 15.0001 21.25H21.0001C21.6905 21.25 22.2501 20.6904 22.2501 20V18C22.2501 17.3097 21.6905 16.75 21.0001 16.75H15.0001Z" fill="black"/>
<path d="M8.69354 14.7857L9.87057 13.6086C10.1635 13.3157 10.6383 13.3157 10.9312 13.6086C11.2241 13.9015 11.2241 14.3764 10.9312 14.6693L9.82114 15.7794L9.82114 22.6067H8.32114L8.32114 17.2794L4.18797 21.4126L4.74841 23.0939L3.32539 23.5682L2.73687 21.8027L0.971302 21.2142L1.44564 19.7911L3.12747 20.3517L7.19354 16.2857H2.00007L2.00007 14.7857H8.69354Z" fill="black"/>
<path fill-rule="evenodd" clip-rule="evenodd" d="M21.8751 7.01559C23.0418 6.34201 23.0418 4.65807 21.8751 3.9845L16.6251 0.953409C15.4584 0.279833 14.0001 1.1218 14.0001 2.46895V8.53113C14.0001 9.87828 15.4584 10.7203 16.6251 10.0467L21.8751 7.01559ZM21.1251 5.28354C21.2918 5.37976 21.2918 5.62032 21.1251 5.71655L15.8751 8.74764C15.7084 8.84386 15.5001 8.72358 15.5001 8.53113V2.46895C15.5001 2.2765 15.7084 2.15622 15.8751 2.25245L21.1251 5.28354Z" fill="black"/>
</g>
<defs>
<clipPath id="clip0_2166_27264">
<rect width="24" height="24" fill="white"/>
</clipPath>
</defs>
</svg>
