<svg width="40" height="40" viewBox="0 0 40 40" fill="none" xmlns="http://www.w3.org/2000/svg">
<rect width="40" height="40" rx="20" fill="#1D9CB3"/>
<g clip-path="url(#clip0_2166_28651)">
<path fill-rule="evenodd" clip-rule="evenodd" d="M17.2501 10.429C17.2501 10.2554 17.0776 10.1347 16.9145 10.1941L12.9145 11.6525C12.8158 11.6885 12.7501 11.7823 12.7501 11.8873V16.8135C12.7767 16.8838 12.8 16.956 12.8199 17.0301C13.1415 18.2304 12.4292 19.4642 11.2289 19.7858C10.0286 20.1074 8.79484 19.3951 8.47322 18.1948C8.1516 16.9945 8.86391 15.7607 10.0642 15.4391C10.4677 15.331 10.875 15.3397 11.2501 15.4446V11.8873C11.2501 11.152 11.7098 10.4951 12.4007 10.2432L16.4007 8.78488C17.5422 8.36868 18.7501 9.21395 18.7501 10.429V14.8749C18.8633 15.0577 18.952 15.26 19.0106 15.4784C19.3322 16.6787 18.6199 17.9124 17.4196 18.234C16.2193 18.5557 14.9855 17.8433 14.6639 16.643C14.3423 15.4427 15.0546 14.209 16.2549 13.8874C16.5909 13.7973 16.9296 13.7883 17.2501 13.8484V10.429ZM16.1128 16.2548C16.0056 15.8547 16.243 15.4435 16.6431 15.3363C17.0432 15.2291 17.4545 15.4665 17.5617 15.8666C17.6689 16.2667 17.4314 16.6779 17.0313 16.7851C16.6312 16.8924 16.22 16.6549 16.1128 16.2548ZM10.4524 16.888C10.0523 16.9952 9.8149 17.4065 9.92211 17.8066C10.0293 18.2067 10.4406 18.4441 10.8407 18.3369C11.2408 18.2297 11.4782 17.8184 11.371 17.4183C11.2638 17.0182 10.8525 16.7808 10.4524 16.888Z" fill="white"/>
<path fill-rule="evenodd" clip-rule="evenodd" d="M23.2501 23C23.2501 22.0335 24.0336 21.25 25.0001 21.25H27.0001C27.9666 21.25 28.7501 22.0335 28.7501 23V23.25H29.0001C30.5189 23.25 31.7501 24.4813 31.7501 26V28C31.7501 29.5188 30.5189 30.75 29.0001 30.75H23.0001C21.4813 30.75 20.2501 29.5188 20.2501 28V26C20.2501 24.4813 21.4813 23.25 23.0001 23.25H23.2501V23ZM27.2501 23V23.25H24.7501V23C24.7501 22.862 24.862 22.75 25.0001 22.75H27.0001C27.1382 22.75 27.2501 22.862 27.2501 23ZM23.0001 24.75C22.3098 24.75 21.7501 25.3097 21.7501 26V28C21.7501 28.6904 22.3098 29.25 23.0001 29.25H29.0001C29.6905 29.25 30.2501 28.6904 30.2501 28V26C30.2501 25.3097 29.6905 24.75 29.0001 24.75H23.0001Z" fill="white"/>
<path d="M16.6935 22.7857L17.8706 21.6086C18.1635 21.3157 18.6383 21.3157 18.9312 21.6086C19.2241 21.9015 19.2241 22.3764 18.9312 22.6693L17.8211 23.7794L17.8211 30.6067H16.3211L16.3211 25.2794L12.188 29.4126L12.7484 31.0939L11.3254 31.5682L10.7369 29.8027L8.9713 29.2142L9.44564 27.7911L11.1275 28.3517L15.1935 24.2857H10.0001L10.0001 22.7857H16.6935Z" fill="white"/>
<path fill-rule="evenodd" clip-rule="evenodd" d="M29.8751 15.0156C31.0418 14.342 31.0418 12.6581 29.8751 11.9845L24.6251 8.95341C23.4584 8.27983 22.0001 9.1218 22.0001 10.469V16.5311C22.0001 17.8783 23.4584 18.7203 24.6251 18.0467L29.8751 15.0156ZM29.1251 13.2835C29.2918 13.3798 29.2918 13.6203 29.1251 13.7165L23.8751 16.7476C23.7084 16.8439 23.5001 16.7236 23.5001 16.5311V10.469C23.5001 10.2765 23.7084 10.1562 23.8751 10.2524L29.1251 13.2835Z" fill="white"/>
</g>
<defs>
<clipPath id="clip0_2166_28651">
<rect width="24" height="24" fill="white" transform="translate(8 8)"/>
</clipPath>
</defs>
</svg>
