<svg width="24" height="24" viewBox="0 0 24 24" fill="none" xmlns="http://www.w3.org/2000/svg">
<path d="M3.25 5C3.25 3.48122 4.48122 2.25 6 2.25H13C14.5188 2.25 15.75 3.48122 15.75 5V8.11429H14.25V5C14.25 4.30964 13.6904 3.75 13 3.75H6C5.30964 3.75 4.75 4.30964 4.75 5V19C4.75 19.6904 5.30964 20.25 6 20.25H13C13.6904 20.25 14.25 19.6904 14.25 19V15.3714H15.75V19C15.75 20.5188 14.5188 21.75 13 21.75H6C4.48122 21.75 3.25 20.5188 3.25 19V5Z" fill="#121615"/>
<path d="M21.25 12C21.25 12.4142 20.9142 12.75 20.5 12.75L9.81066 12.75L11.5303 14.4697C11.8232 14.7626 11.8232 15.2374 11.5303 15.5303C11.2374 15.8232 10.7626 15.8232 10.4697 15.5303L8.17678 13.2374C7.49336 12.554 7.49336 11.446 8.17678 10.7626L10.4697 8.46967C10.7626 8.17678 11.2374 8.17678 11.5303 8.46967C11.8232 8.76256 11.8232 9.23744 11.5303 9.53033L9.81066 11.25L20.5 11.25C20.9142 11.25 21.25 11.5858 21.25 12Z" fill="#121615"/>
</svg>
