<svg width="24" height="24" viewBox="0 0 24 24" fill="none" xmlns="http://www.w3.org/2000/svg">
<path d="M11.4688 13.501L11.0624 6.99805C11.0286 6.45721 11.4581 5.99999 12 5.99999C12.5419 5.99999 12.9714 6.45721 12.9376 6.99805L12.5312 13.501C12.5136 13.7815 12.281 14 12 14C11.7189 14 11.4863 13.7815 11.4688 13.501Z" fill="#121615"/>
<path d="M12 17.5C12.5523 17.5 13 17.0523 13 16.5C13 15.9477 12.5523 15.5 12 15.5C11.4477 15.5 11 15.9477 11 16.5C11 17.0523 11.4477 17.5 12 17.5Z" fill="#121615"/>
<path fill-rule="evenodd" clip-rule="evenodd" d="M21.2739 15.0096C21.6691 13.7917 21.8206 12.5079 21.7197 11.2315C21.6187 9.95512 21.2674 8.71109 20.6857 7.57046C20.104 6.42984 19.3034 5.41496 18.3294 4.58376C17.3555 3.75257 16.2274 3.12134 15.0096 2.72611C13.7917 2.33089 12.5079 2.17941 11.2315 2.28033C9.95512 2.38125 8.71109 2.73259 7.57046 3.31428C6.42984 3.89598 5.41496 4.69664 4.58376 5.67055C3.75257 6.64447 3.12134 7.77256 2.72611 8.99043C2.33089 10.2083 2.17941 11.4921 2.28033 12.7685C2.38125 14.0449 2.73259 15.2889 3.31428 16.4295C3.89598 17.5702 4.69664 18.585 5.67055 19.4162C6.64447 20.2474 7.77256 20.8787 8.99043 21.2739C10.2083 21.6691 11.4921 21.8206 12.7685 21.7197C14.0449 21.6187 15.2889 21.2674 16.4295 20.6857C17.5702 20.104 18.585 19.3034 19.4162 18.3294C20.2474 17.3555 20.8787 16.2274 21.2739 15.0096ZM14.5466 4.15287C13.5161 3.81845 12.4298 3.69027 11.3498 3.77567C10.2697 3.86106 9.21708 4.15834 8.25193 4.65055C7.28679 5.14275 6.42804 5.82023 5.72472 6.64431C5.0214 7.4684 4.48729 8.42294 4.15287 9.45344C3.81845 10.4839 3.69027 11.5702 3.77567 12.6503C3.86106 13.7303 4.15834 14.7829 4.65055 15.7481C5.14275 16.7132 5.82023 17.572 6.64431 18.2753C7.4684 18.9786 8.42294 19.5127 9.45344 19.8471C10.4839 20.1816 11.5702 20.3097 12.6503 20.2243C13.7303 20.1389 14.7829 19.8417 15.7481 19.3495C16.7132 18.8573 17.572 18.1798 18.2753 17.3557C18.9786 16.5316 19.5127 15.5771 19.8471 14.5466C20.1816 13.5161 20.3097 12.4298 20.2243 11.3498C20.1389 10.2697 19.8417 9.21708 19.3495 8.25193C18.8573 7.28679 18.1798 6.42804 17.3557 5.72472C16.5316 5.0214 15.5771 4.48729 14.5466 4.15287Z" fill="#121615"/>
</svg>
