<svg width="24" height="24" viewBox="0 0 24 24" fill="none" xmlns="http://www.w3.org/2000/svg">
<path d="M3.25 5C3.25 3.48122 4.48122 2.25 6 2.25H12C13.5188 2.25 14.75 3.48122 14.75 5V8.11429H13.25V5C13.25 4.30964 12.6904 3.75 12 3.75H6C5.30964 3.75 4.75 4.30964 4.75 5V19C4.75 19.6904 5.30964 20.25 6 20.25H12C12.6904 20.25 13.25 19.6904 13.25 19V15.3714H14.75V19C14.75 20.5188 13.5188 21.75 12 21.75H6C4.48122 21.75 3.25 20.5188 3.25 19V5Z" fill="#121615"/>
<path d="M8.25 12C8.25 11.5858 8.58579 11.25 9 11.25H19.6893L17.9697 9.53033C17.6768 9.23744 17.6768 8.76256 17.9697 8.46967C18.2626 8.17678 18.7374 8.17678 19.0303 8.46967L21.3232 10.7626C22.0066 11.446 22.0066 12.554 21.3232 13.2374L19.0303 15.5303C18.7374 15.8232 18.2626 15.8232 17.9697 15.5303C17.6768 15.2374 17.6768 14.7626 17.9697 14.4697L19.6893 12.75H9C8.58579 12.75 8.25 12.4142 8.25 12Z" fill="#121615"/>
</svg>
