<svg width="24" height="24" viewBox="0 0 24 24" fill="none" xmlns="http://www.w3.org/2000/svg">
<path fill-rule="evenodd" clip-rule="evenodd" d="M4.53033 3.46967C4.23744 3.17678 3.76256 3.17678 3.46967 3.46967C3.17678 3.76256 3.17678 4.23744 3.46967 4.53033L19.4697 20.5303C19.7626 20.8232 20.2374 20.8232 20.5303 20.5303C20.8232 20.2374 20.8232 19.7626 20.5303 19.4697L18.7087 17.6481C20.4939 16.4044 21.9175 14.6781 22.7905 12.6588C22.9723 12.2384 22.9723 11.7616 22.7905 11.3412C20.9875 7.17073 16.836 4.25 12.0005 4.25C10.0592 4.25 8.22805 4.72079 6.61489 5.55423L4.53033 3.46967ZM7.73678 6.67612L9.75178 8.69112C10.3925 8.25495 11.1665 8 12 8C14.2091 8 16 9.79086 16 12C16 12.8335 15.745 13.6075 15.3089 14.2482L17.6287 16.568C19.2906 15.4742 20.6155 13.9097 21.4137 12.0636C21.4312 12.023 21.4312 11.977 21.4137 11.9364C19.8396 8.29547 16.2165 5.75 12.0005 5.75C10.4793 5.75 9.03523 6.08141 7.73678 6.67612ZM14.2171 13.1564C14.3978 12.8106 14.5 12.4172 14.5 12C14.5 10.6193 13.3807 9.5 12 9.5C11.5828 9.5 11.1894 9.60221 10.8436 9.78295L14.2171 13.1564Z" fill="#121615"/>
<path d="M2.58738 11.9364C3.19404 10.5331 4.10508 9.29259 5.23713 8.29779L4.1747 7.23536C2.91065 8.36483 1.89256 9.76359 1.21054 11.3412C1.02878 11.7616 1.02878 12.2384 1.21054 12.6588C3.0135 16.8293 7.16508 19.75 12.0005 19.75C13.4025 19.75 14.747 19.5045 15.9935 19.0541L14.8018 17.8625C13.9114 18.1149 12.9717 18.25 12.0005 18.25C7.78456 18.25 4.16143 15.7045 2.58738 12.0636C2.56983 12.023 2.56983 11.977 2.58738 11.9364Z" fill="#121615"/>
<path d="M8 12C8 11.7087 8.03115 11.4246 8.09029 11.151L9.58387 12.6445C9.81342 13.5072 10.4928 14.1866 11.3555 14.4161L12.849 15.9097C12.5754 15.9689 12.2913 16 12 16C9.79086 16 8 14.2091 8 12Z" fill="#121615"/>
</svg>
