<svg width="24" height="24" viewBox="0 0 24 24" fill="none" xmlns="http://www.w3.org/2000/svg">
<path fill-rule="evenodd" clip-rule="evenodd" d="M16.0004 12C16.0004 14.2091 14.2095 16 12.0004 16C9.79126 16 8.0004 14.2091 8.0004 12C8.0004 9.79086 9.79126 8 12.0004 8C14.2095 8 16.0004 9.79086 16.0004 12ZM14.5004 12C14.5004 13.3807 13.3811 14.5 12.0004 14.5C10.6197 14.5 9.5004 13.3807 9.5004 12C9.5004 10.6193 10.6197 9.5 12.0004 9.5C13.3811 9.5 14.5004 10.6193 14.5004 12Z" fill="#121615"/>
<path fill-rule="evenodd" clip-rule="evenodd" d="M12.0005 4.25C7.16508 4.25 3.0135 7.17072 1.21054 11.3412C1.02878 11.7616 1.02878 12.2384 1.21054 12.6588C3.0135 16.8293 7.16508 19.75 12.0005 19.75C16.836 19.75 20.9875 16.8293 22.7905 12.6588C22.9723 12.2384 22.9723 11.7616 22.7905 11.3412C20.9875 7.17073 16.836 4.25 12.0005 4.25ZM2.58738 11.9364C4.16143 8.29547 7.78456 5.75 12.0005 5.75C16.2165 5.75 19.8396 8.29547 21.4137 11.9364C21.4312 11.977 21.4312 12.023 21.4137 12.0636C19.8396 15.7045 16.2165 18.25 12.0005 18.25C7.78456 18.25 4.16143 15.7045 2.58738 12.0636C2.56983 12.023 2.56983 11.977 2.58738 11.9364Z" fill="#121615"/>
</svg>
