<svg width="24" height="24" viewBox="0 0 24 24" fill="none" xmlns="http://www.w3.org/2000/svg">
<path d="M2.75 5C2.75 3.75736 3.75736 2.75 5 2.75H8C8.41421 2.75 8.75 2.41421 8.75 2C8.75 1.58579 8.41421 1.25 8 1.25H5C2.92893 1.25 1.25 2.92893 1.25 5V8C1.25 8.41421 1.58579 8.75 2 8.75C2.41421 8.75 2.75 8.41421 2.75 8V5Z" fill="#121615"/>
<path d="M21.25 5C21.25 3.75736 20.2426 2.75 19 2.75L16 2.75C15.5858 2.75 15.25 2.41421 15.25 2C15.25 1.58579 15.5858 1.25 16 1.25H19C21.0711 1.25 22.75 2.92893 22.75 5V8C22.75 8.41421 22.4142 8.75 22 8.75C21.5858 8.75 21.25 8.41421 21.25 8V5Z" fill="#121615"/>
<path d="M10 8.5C10 9.32843 9.32843 10 8.5 10C7.67157 10 7 9.32843 7 8.5C7 7.67157 7.67157 7 8.5 7C9.32843 7 10 7.67157 10 8.5Z" fill="#121615"/>
<path d="M17 8.5C17 9.32843 16.3284 10 15.5 10C14.6716 10 14 9.32843 14 8.5C14 7.67157 14.6716 7 15.5 7C16.3284 7 17 7.67157 17 8.5Z" fill="#121615"/>
<path d="M8.7398 13.8767C8.6717 13.4681 8.28528 13.1921 7.8767 13.2602C7.46812 13.3283 7.19211 13.7147 7.2602 14.1233C7.36309 14.7406 7.69001 15.6267 8.35132 16.3726C9.03237 17.1407 10.0632 17.75 11.5 17.75C11.9142 17.75 12.25 17.4142 12.25 17C12.25 16.5858 11.9142 16.25 11.5 16.25C10.5368 16.25 9.90096 15.8593 9.47368 15.3774C9.02665 14.8733 8.80357 14.2594 8.7398 13.8767Z" fill="#121615"/>
<path d="M2.75 19C2.75 20.2426 3.75736 21.25 5 21.25H8C8.41421 21.25 8.75 21.5858 8.75 22C8.75 22.4142 8.41421 22.75 8 22.75H5C2.92893 22.75 1.25 21.0711 1.25 19V16C1.25 15.5858 1.58579 15.25 2 15.25C2.41421 15.25 2.75 15.5858 2.75 16L2.75 19Z" fill="#121615"/>
<path d="M21.25 19C21.25 20.2426 20.2426 21.25 19 21.25H16C15.5858 21.25 15.25 21.5858 15.25 22C15.25 22.4142 15.5858 22.75 16 22.75H19C21.0711 22.75 22.75 21.0711 22.75 19V16C22.75 15.5858 22.4142 15.25 22 15.25C21.5858 15.25 21.25 15.5858 21.25 16V19Z" fill="#121615"/>
</svg>
