<svg width="24" height="24" viewBox="0 0 24 24" fill="none" xmlns="http://www.w3.org/2000/svg">
<g clip-path="url(#clip0_2138_30297)">
<path fill-rule="evenodd" clip-rule="evenodd" d="M9.50006 7.25006C8.25742 7.25006 7.25006 8.25742 7.25006 9.50006C7.25006 10.7427 8.25742 11.7501 9.50006 11.7501C10.7427 11.7501 11.7501 10.7427 11.7501 9.50006C11.7501 8.25742 10.7427 7.25006 9.50006 7.25006ZM8.75006 9.50006C8.75006 9.08584 9.08584 8.75006 9.50006 8.75006C9.91427 8.75006 10.2501 9.08584 10.2501 9.50006C10.2501 9.91427 9.91427 10.2501 9.50006 10.2501C9.08584 10.2501 8.75006 9.91427 8.75006 9.50006Z" fill="black"/>
<path fill-rule="evenodd" clip-rule="evenodd" d="M12.2501 14.5001C12.2501 13.2574 13.2574 12.2501 14.5001 12.2501C15.7427 12.2501 16.7501 13.2574 16.7501 14.5001C16.7501 15.7427 15.7427 16.7501 14.5001 16.7501C13.2574 16.7501 12.2501 15.7427 12.2501 14.5001ZM14.5001 13.7501C14.0858 13.7501 13.7501 14.0858 13.7501 14.5001C13.7501 14.9143 14.0858 15.2501 14.5001 15.2501C14.9143 15.2501 15.2501 14.9143 15.2501 14.5001C15.2501 14.0858 14.9143 13.7501 14.5001 13.7501Z" fill="black"/>
<path d="M15.4697 7.46973L7.46973 15.4697L8.53039 16.5304L16.5304 8.53039L15.4697 7.46973Z" fill="black"/>
<path fill-rule="evenodd" clip-rule="evenodd" d="M13.6813 1.3511C12.691 0.586093 11.3091 0.586092 10.3189 1.3511L8.25085 2.94868L5.6589 3.28131C4.41773 3.4406 3.4406 4.41773 3.28131 5.6589L2.94868 8.25085L1.3511 10.3189C0.586093 11.3091 0.586092 12.691 1.3511 13.6813L2.94868 15.7493L3.28131 18.3412C3.4406 19.5824 4.41773 20.5595 5.6589 20.7188L8.25085 21.0514L10.3189 22.649C11.3091 23.414 12.691 23.414 13.6813 22.649L15.7493 21.0514L18.3412 20.7188C19.5824 20.5595 20.5595 19.5824 20.7188 18.3412L21.0514 15.7493L22.649 13.6813C23.414 12.691 23.414 11.3091 22.649 10.3189L21.0514 8.25085L20.7188 5.6589C20.5595 4.41773 19.5824 3.4406 18.3412 3.28131L15.7493 2.94868L13.6813 1.3511ZM11.2359 2.53814C11.686 2.19041 12.3141 2.19041 12.7642 2.53814L15.1545 4.38465L18.1503 4.76911C18.7144 4.84151 19.1586 5.28567 19.231 5.84983L19.6155 8.84565L21.462 11.2359C21.8097 11.686 21.8097 12.3141 21.462 12.7642L19.6155 15.1545L19.231 18.1503C19.1586 18.7144 18.7144 19.1586 18.1503 19.231L15.1545 19.6155L12.7642 21.462C12.3141 21.8097 11.686 21.8097 11.2359 21.462L8.84565 19.6155L5.84983 19.231C5.28567 19.1586 4.84151 18.7144 4.76911 18.1503L4.38465 15.1545L2.53814 12.7642C2.19041 12.3141 2.19041 11.686 2.53814 11.2359L4.38465 8.84565L4.76911 5.84983C4.84151 5.28567 5.28567 4.84151 5.84983 4.76911L8.84565 4.38465L11.2359 2.53814Z" fill="black"/>
</g>
<defs>
<clipPath id="clip0_2138_30297">
<rect width="24" height="24" fill="white"/>
</clipPath>
</defs>
</svg>
