<svg width="40" height="40" viewBox="0 0 40 40" fill="none" xmlns="http://www.w3.org/2000/svg">
<path d="M0 20C0 8.95431 8.95431 0 20 0C31.0457 0 40 8.95431 40 20C40 31.0457 31.0457 40 20 40C8.95431 40 0 31.0457 0 20Z" fill="#493CC4"/>
<g clip-path="url(#clip0_2166_28649)">
<path fill-rule="evenodd" clip-rule="evenodd" d="M17.5001 15.2501C16.2574 15.2501 15.2501 16.2574 15.2501 17.5001C15.2501 18.7427 16.2574 19.7501 17.5001 19.7501C18.7427 19.7501 19.7501 18.7427 19.7501 17.5001C19.7501 16.2574 18.7427 15.2501 17.5001 15.2501ZM16.7501 17.5001C16.7501 17.0858 17.0858 16.7501 17.5001 16.7501C17.9143 16.7501 18.2501 17.0858 18.2501 17.5001C18.2501 17.9143 17.9143 18.2501 17.5001 18.2501C17.0858 18.2501 16.7501 17.9143 16.7501 17.5001Z" fill="white"/>
<path fill-rule="evenodd" clip-rule="evenodd" d="M20.2501 22.5001C20.2501 21.2574 21.2574 20.2501 22.5001 20.2501C23.7427 20.2501 24.7501 21.2574 24.7501 22.5001C24.7501 23.7427 23.7427 24.7501 22.5001 24.7501C21.2574 24.7501 20.2501 23.7427 20.2501 22.5001ZM22.5001 21.7501C22.0858 21.7501 21.7501 22.0858 21.7501 22.5001C21.7501 22.9143 22.0858 23.2501 22.5001 23.2501C22.9143 23.2501 23.2501 22.9143 23.2501 22.5001C23.2501 22.0858 22.9143 21.7501 22.5001 21.7501Z" fill="white"/>
<path d="M23.4697 15.4697L15.4697 23.4697L16.5304 24.5304L24.5304 16.5304L23.4697 15.4697Z" fill="white"/>
<path fill-rule="evenodd" clip-rule="evenodd" d="M21.6813 9.3511C20.691 8.58609 19.3091 8.58609 18.3189 9.3511L16.2509 10.9487L13.6589 11.2813C12.4177 11.4406 11.4406 12.4177 11.2813 13.6589L10.9487 16.2509L9.3511 18.3189C8.58609 19.3091 8.58609 20.691 9.3511 21.6813L10.9487 23.7493L11.2813 26.3412C11.4406 27.5824 12.4177 28.5595 13.6589 28.7188L16.2509 29.0514L18.3189 30.649C19.3091 31.414 20.691 31.414 21.6813 30.649L23.7493 29.0514L26.3412 28.7188C27.5824 28.5595 28.5595 27.5824 28.7188 26.3412L29.0514 23.7493L30.649 21.6813C31.414 20.691 31.414 19.3091 30.649 18.3189L29.0514 16.2509L28.7188 13.6589C28.5595 12.4177 27.5824 11.4406 26.3412 11.2813L23.7493 10.9487L21.6813 9.3511ZM19.2359 10.5381C19.686 10.1904 20.3141 10.1904 20.7642 10.5381L23.1545 12.3846L26.1503 12.7691C26.7144 12.8415 27.1586 13.2857 27.231 13.8498L27.6155 16.8457L29.462 19.2359C29.8097 19.686 29.8097 20.3141 29.462 20.7642L27.6155 23.1545L27.231 26.1503C27.1586 26.7144 26.7144 27.1586 26.1503 27.231L23.1545 27.6155L20.7642 29.462C20.3141 29.8097 19.686 29.8097 19.2359 29.462L16.8457 27.6155L13.8498 27.231C13.2857 27.1586 12.8415 26.7144 12.7691 26.1503L12.3846 23.1545L10.5381 20.7642C10.1904 20.3141 10.1904 19.686 10.5381 19.2359L12.3846 16.8457L12.7691 13.8498C12.8415 13.2857 13.2857 12.8415 13.8498 12.7691L16.8457 12.3846L19.2359 10.5381Z" fill="white"/>
</g>
<defs>
<clipPath id="clip0_2166_28649">
<rect width="24" height="24" fill="white" transform="translate(8 8)"/>
</clipPath>
</defs>
</svg>
