<svg width="24" height="24" viewBox="0 0 24 24" fill="none" xmlns="http://www.w3.org/2000/svg">
<path fill-rule="evenodd" clip-rule="evenodd" d="M20 1.25C20.3138 1.25 20.5945 1.4454 20.7034 1.73972L20.7158 1.77324C21.1463 2.93655 22.0634 3.85375 23.2268 4.28421L23.2603 4.29661C23.5546 4.40552 23.75 4.68617 23.75 5C23.75 5.31383 23.5546 5.59448 23.2603 5.70339L23.2268 5.71579C22.0634 6.14626 21.1463 7.06345 20.7158 8.22676L20.7034 8.26028C20.5945 8.5546 20.3138 8.75 20 8.75C19.6862 8.75 19.4055 8.5546 19.2966 8.26028L19.2842 8.22676C18.8537 7.06345 17.9366 6.14625 16.7732 5.71579L16.7397 5.70339C16.4454 5.59448 16.25 5.31383 16.25 5C16.25 4.68617 16.4454 4.40552 16.7397 4.29661L16.7732 4.28421C17.9366 3.85375 18.8537 2.93655 19.2842 1.77324L19.2966 1.73972C19.4055 1.4454 19.6862 1.25 20 1.25ZM20 3.60851C19.6196 4.14876 19.1488 4.61961 18.6085 5C19.1488 5.38039 19.6196 5.85124 20 6.39149C20.3804 5.85124 20.8512 5.38039 21.3915 5C20.8512 4.61961 20.3804 4.14876 20 3.60851ZM1.25 7.99999C1.25 5.37664 3.37665 3.24999 6 3.24999H15.5V4.74999H6C4.20507 4.74999 2.75 6.20507 2.75 7.99999V15C2.75 16.7949 4.20507 18.25 6 18.25H7H7.75V19V20.7865L11.3977 18.9626C12.335 18.494 13.3685 18.25 14.4164 18.25H18C19.7949 18.25 21.25 16.7949 21.25 15V10.5H22.75V15C22.75 17.6233 20.6234 19.75 18 19.75H14.4164C13.6014 19.75 12.7975 19.9398 12.0685 20.3042L7.33541 22.6708L6.25 23.2135V22V19.75H6C3.37665 19.75 1.25 17.6233 1.25 15V7.99999ZM14 11C13.4477 11 13 10.5523 13 10C13 9.44771 13.4477 9 14 9C14.5523 9 15 9.44771 15 10C15 10.5523 14.5523 11 14 11ZM8 10C8 10.5523 8.44772 11 9 11C9.55229 11 10 10.5523 10 10C10 9.44771 9.55229 9 9 9C8.44772 9 8 9.44771 8 10ZM7.0938 13.7443C6.99103 13.3431 7.23301 12.9345 7.63427 12.8317C8.03553 12.7289 8.44413 12.9709 8.5469 13.3722C8.60335 13.5926 8.70919 13.7972 8.85642 13.9707C9.00364 14.1441 9.1884 14.2818 9.3967 14.3733C9.605 14.4648 9.83138 14.5078 10.0587 14.4988C10.2861 14.4899 10.5084 14.4294 10.7089 14.3219C11.0739 14.1262 11.5285 14.2634 11.7243 14.6284C11.92 14.9935 11.7828 15.4481 11.4178 15.6438C11.0168 15.8589 10.5721 15.9799 10.1174 15.9977C9.66276 16.0155 9.20999 15.9297 8.79339 15.7467C8.3768 15.5636 8.00729 15.2883 7.71283 14.9414C7.41838 14.5945 7.20669 14.1851 7.0938 13.7443Z" fill="#121615"/>
</svg>
