<svg width="24" height="24" viewBox="0 0 24 24" fill="none" xmlns="http://www.w3.org/2000/svg">
<path fill-rule="evenodd" clip-rule="evenodd" d="M10.4865 3.38958C11.3447 2.6094 12.6553 2.6094 13.5135 3.38958L16.9898 6.54982L18 7.50687V8.75006H22.25V13.7501L13.75 13.7501V8.75006H15.1585C15.2801 8.75006 15.384 8.83754 15.4048 8.95735L15.7812 11.1282L17.2592 10.8719L16.8827 8.70107C16.7373 7.86244 16.0096 7.25006 15.1585 7.25006L12.25 7.25006V16.0001C12.25 16.9666 13.0335 17.7501 14 17.7501H16.1147L15.589 20.904C15.3407 22.3938 16.4896 23.7501 18 23.7501C19.5104 23.7501 20.6593 22.3938 20.411 20.904L19.8853 17.7501H22C22.9665 17.7501 23.75 16.9666 23.75 16.0001V7.25006H19.91L18.0102 5.45029L14.5225 2.27967C13.0922 0.979367 10.9078 0.97937 9.47748 2.27967L5.75 5.66828V2.00006H4.25V7.00006H4.28504L0.495495 10.4451L1.5045 11.555L10.4865 3.38958ZM14 16.2501C13.8619 16.2501 13.75 16.1381 13.75 16.0001V15.2501L22.25 15.2501V16.0001C22.25 16.1381 22.1381 16.2501 22 16.2501H14ZM17.0686 21.1506L17.6353 17.7501H18.3647L18.9314 21.1506C19.0273 21.7261 18.5835 22.2501 18 22.2501C17.4165 22.2501 16.9727 21.7261 17.0686 21.1506Z" fill="#121615"/>
<path d="M3.25 21.2501H0V22.7501H10V21.2501H4.75V11.0001H3.25V21.2501Z" fill="#121615"/>
</svg>
