<svg width="24" height="24" viewBox="0 0 24 24" fill="none" xmlns="http://www.w3.org/2000/svg">
<path d="M3.23926 7.48414C3.875 6.15933 4.77324 5.03961 5.90527 4.10855C7.43926 2.84117 9.19883 2.07828 11.1717 1.84449C13.4891 1.56968 15.667 2.00855 17.6809 3.21441C18.1813 3.51382 18.6488 3.85425 19.0959 4.22339C19.2066 4.31363 19.1943 4.36695 19.1 4.45718C18.1854 5.36773 17.2707 6.27828 16.3643 7.19703C16.2576 7.30367 16.2002 7.29546 16.0854 7.20933C13.4275 5.16265 9.55156 5.71636 7.57051 8.42339C7.22187 8.89918 6.93887 9.41187 6.74199 9.96968C6.72559 10.0189 6.69277 10.064 6.66816 10.1132C6.13906 9.71129 5.60586 9.30933 5.08086 8.90328C4.46563 8.4316 3.85039 7.95992 3.23926 7.48414Z" fill="#CA3D37"/>
<path d="M6.66787 13.9606C6.84424 14.3502 6.99189 14.7563 7.21338 15.1213C8.14443 16.6471 9.47334 17.6274 11.2247 17.976C12.8038 18.2918 14.3214 18.0785 15.7364 17.2869C15.7856 17.2623 15.8349 17.2377 15.88 17.2131C15.9046 17.2377 15.9251 17.2664 15.9497 17.2869C17.0079 18.1073 18.0702 18.9276 19.1284 19.7479C18.6198 20.2524 18.0415 20.6584 17.4263 21.0112C15.6421 22.0283 13.7103 22.4385 11.6759 22.2826C9.14111 22.0858 6.95498 21.085 5.15029 19.2803C4.35869 18.4887 3.70654 17.5946 3.23486 16.5733C3.67373 16.2369 4.1126 15.9047 4.55146 15.5684C5.25693 15.0311 5.9624 14.4979 6.66787 13.9606Z" fill="#91AD13"/>
<path d="M19.1326 19.7479C18.0744 18.9275 17.0121 18.1072 15.9539 17.2869C15.9293 17.2664 15.9047 17.2377 15.8842 17.2131C16.2492 16.9301 16.6224 16.6553 16.9219 16.2943C17.4222 15.6955 17.7545 15.0188 17.9267 14.26C17.9472 14.1656 17.9308 14.1328 17.8365 14.1369C17.7873 14.141 17.7422 14.1369 17.6929 14.1369C16.0195 14.1369 14.342 14.1328 12.6685 14.141C12.484 14.141 12.4429 14.0918 12.447 13.9154C12.4553 12.726 12.4553 11.5365 12.447 10.3471C12.447 10.1953 12.4881 10.1543 12.6398 10.1543C15.7078 10.1584 18.7758 10.1584 21.8478 10.1543C21.9791 10.1543 22.0324 10.1871 22.0652 10.3266C22.3154 11.4545 22.299 12.5865 22.1472 13.7268C22.0242 14.6373 21.8027 15.5191 21.4623 16.3723C20.9578 17.6314 20.2154 18.7307 19.2392 19.674C19.2023 19.7027 19.1654 19.7232 19.1326 19.7479Z" fill="#7CA0B5"/>
<path d="M6.66792 13.9605C5.96245 14.4979 5.25698 15.0311 4.55152 15.5684C4.11265 15.9006 3.67378 16.2369 3.23491 16.5732C2.89448 15.9416 2.673 15.273 2.49253 14.584C2.148 13.251 2.09468 11.8975 2.28335 10.5398C2.43101 9.47344 2.73862 8.44805 3.23491 7.48828C3.85015 7.95996 4.46128 8.43574 5.07652 8.90742C5.60562 9.31348 6.13472 9.71543 6.66382 10.1174C6.57359 10.5563 6.44644 10.9869 6.40542 11.4381C6.33159 12.2584 6.40952 13.0582 6.64331 13.8457C6.65972 13.8785 6.66382 13.9195 6.66792 13.9605Z" fill="#EFA93F"/>
</svg>
