<svg width="24" height="24" viewBox="0 0 24 24" fill="none" xmlns="http://www.w3.org/2000/svg">
<path d="M12.3314 2.75594C12.6709 2.76811 13.0087 2.79894 13.3433 2.84806L13.5611 1.36396C13.0542 1.28954 12.541 1.25124 12.0254 1.25003C11.996 1.24996 11.9667 1.25001 11.9374 1.25018C10.1908 1.26035 8.47046 1.69606 6.92662 2.52249C5.25097 3.41948 3.84308 4.74469 2.84646 6.36306C1.84983 7.98143 1.30009 9.83511 1.25326 11.7352C1.20644 13.6352 1.6642 15.5137 2.5799 17.1792C3.4956 18.8447 4.8365 20.2377 6.46593 21.2161C8.09536 22.1945 9.95508 22.7235 11.8555 22.749C13.756 22.7746 15.6293 22.2958 17.2844 21.3615C18.9395 20.4272 20.3174 19.0708 21.2775 17.4305C21.5523 16.961 21.7901 16.473 21.9897 15.9709L20.5958 15.4168C20.4097 15.8851 20.1849 16.3391 19.9229 16.774C19.0998 18.14 17.937 19.2706 16.547 20.0552C15.1228 20.8592 13.511 21.2711 11.8757 21.2492C10.2404 21.2272 8.6402 20.7721 7.23813 19.9301C5.83606 19.0882 4.68226 17.8896 3.89433 16.4565C3.10641 15.0234 2.71252 13.407 2.75281 11.7721C2.7931 10.1372 3.26613 8.54216 4.12369 7.14961C4.98126 5.75706 6.19269 4.61676 7.63453 3.84493C8.9292 3.15189 10.3681 2.77818 11.8316 2.75153C11.9985 2.74849 12.1652 2.74998 12.3314 2.75594Z" fill="#121615"/>
<path d="M15.1776 3.31293C15.6508 3.48602 16.1109 3.69814 16.5529 3.94804C16.9948 4.19795 17.4137 4.48282 17.806 4.7991L18.7475 3.63139C18.2916 3.26382 17.8048 2.93274 17.2912 2.64232C16.7775 2.3519 16.2429 2.10538 15.6929 1.90421L15.1776 3.31293Z" fill="#121615"/>
<path d="M19.1499 6.1313C19.4696 6.52078 19.7581 6.93719 20.0119 7.37695C20.2656 7.81672 20.4817 8.27489 20.659 8.74658L22.0631 8.21901C21.8572 7.67082 21.606 7.13834 21.3111 6.62727C21.0162 6.1162 20.6809 5.63227 20.3093 5.17962L19.1499 6.1313Z" fill="#121615"/>
<path d="M21.1399 10.5768C21.2174 11.0747 21.2544 11.5799 21.2496 12.0876C21.2448 12.5953 21.1982 13.0998 21.1113 13.5961L22.5888 13.8549C22.6898 13.2781 22.7439 12.6918 22.7495 12.1018C22.7551 11.5118 22.7121 10.9246 22.622 10.346L21.1399 10.5768Z" fill="#121615"/>
<path d="M11.25 10.3014V6H12.75V10.3014C12.75 11.0918 13.1647 11.8242 13.8424 12.2308L17.3859 14.3569L16.6141 15.6431L13.0706 13.517C11.9411 12.8393 11.25 11.6187 11.25 10.3014Z" fill="#121615"/>
</svg>
