<svg width="16" height="16" viewBox="0 0 16 16" fill="none" xmlns="http://www.w3.org/2000/svg">
<path d="M8.53038 4.46972C8.39465 4.33397 8.20713 4.25 8 4.25C7.58579 4.25 7.25 4.58579 7.25 5C7.25 5.41427 7.58583 5.7501 8.0001 5.7501C8.41431 5.7501 8.7501 5.41431 8.7501 5.0001C8.7501 4.79297 8.66613 4.60545 8.53038 4.46972Z" fill="#121615"/>
<path d="M8 6.25C8.41421 6.25 8.75 6.58579 8.75 7V10C8.75 10.1381 8.86193 10.25 9 10.25C9.41421 10.25 9.75 10.5858 9.75 11C9.75 11.4142 9.41421 11.75 9 11.75C8.0335 11.75 7.25 10.9665 7.25 10V7C7.25 6.58579 7.58579 6.25 8 6.25Z" fill="#121615"/>
<path fill-rule="evenodd" clip-rule="evenodd" d="M15 8C15 11.866 11.866 15 8 15C4.13401 15 1 11.866 1 8C1 4.13401 4.13401 1 8 1C11.866 1 15 4.13401 15 8ZM13.5 8C13.5 11.0376 11.0376 13.5 8 13.5C4.96243 13.5 2.5 11.0376 2.5 8C2.5 4.96243 4.96243 2.5 8 2.5C11.0376 2.5 13.5 4.96243 13.5 8Z" fill="#121615"/>
</svg>
