<svg width="40" height="40" viewBox="0 0 40 40" fill="none" xmlns="http://www.w3.org/2000/svg">
<rect width="40" height="40" rx="20" fill="#DB6661"/>
<path d="M24.5892 18.464C24.8455 18.1386 24.7894 17.667 24.464 17.4108C24.1386 17.1545 23.667 17.2106 23.4108 17.536L20.0395 21.817C19.9593 21.9187 19.8148 21.9425 19.7064 21.8717L17.4101 20.372C17.0633 20.1456 16.5985 20.2431 16.372 20.5899C16.1456 20.9367 16.2431 21.4015 16.5899 21.628L18.8862 23.1276C19.6452 23.6232 20.6571 23.4572 21.2179 22.745L24.5892 18.464Z" fill="white"/>
<path fill-rule="evenodd" clip-rule="evenodd" d="M20.2496 9.29276C20.0881 9.23575 19.9119 9.23575 19.7504 9.29276L11.2504 12.2928C10.9505 12.3986 10.75 12.682 10.75 13V19.9248C10.75 24.4827 13.6242 28.5451 17.9222 30.062L19.7504 30.7072C19.9119 30.7643 20.0881 30.7643 20.2496 30.7072L22.0778 30.062C26.3758 28.5451 29.25 24.4827 29.25 19.9248V13C29.25 12.682 29.0495 12.3986 28.7496 12.2928L20.2496 9.29276ZM12.25 19.9248V13.5306L20 10.7953L27.75 13.5306V19.9248C27.75 23.8467 25.2768 27.3422 21.5786 28.6475L20 29.2047L18.4214 28.6475C14.7232 27.3422 12.25 23.8467 12.25 19.9248Z" fill="white"/>
</svg>
