<svg width="24" height="24" viewBox="0 0 24 24" fill="none" xmlns="http://www.w3.org/2000/svg">
<path d="M19.752 4.25237C18.2153 2.71568 15.7239 2.71568 14.1872 4.25237L10.8744 7.56511C10.5815 7.858 10.1067 7.858 9.81378 7.56511C9.52088 7.27221 9.52088 6.79734 9.81378 6.50445L13.1265 3.19171C15.249 1.06924 18.6902 1.06924 20.8127 3.19171C22.9351 5.31417 22.9351 8.75538 20.8127 10.8778L17.4999 14.1906C17.207 14.4835 16.7322 14.4835 16.4393 14.1906C16.1464 13.8977 16.1464 13.4228 16.4393 13.1299L19.752 9.81719C21.2887 8.28051 21.2887 5.78905 19.752 4.25237Z" fill="#121615"/>
<path d="M16.6728 7.3316C16.9657 7.62449 16.9657 8.09937 16.6728 8.39226L8.39092 16.6741C8.09803 16.967 7.62315 16.967 7.33026 16.6741C7.03737 16.3812 7.03737 15.9063 7.33026 15.6135L15.6121 7.3316C15.905 7.03871 16.3799 7.03871 16.6728 7.3316Z" fill="#121615"/>
<path d="M9.81451 19.7542C8.27782 21.2909 5.78636 21.2909 4.24968 19.7542C2.713 18.2175 2.713 15.7261 4.24968 14.1894L7.56242 10.8766C7.85532 10.5837 7.85532 10.1089 7.56242 9.81598C7.26953 9.52309 6.79466 9.52309 6.50176 9.81598L3.18902 13.1287C1.06655 15.2512 1.06655 18.6924 3.18902 20.8149C5.31149 22.9373 8.7527 22.9373 10.8752 20.8149L14.1879 17.5021C14.4808 17.2092 14.4808 16.7344 14.1879 16.4415C13.895 16.1486 13.4201 16.1486 13.1272 16.4415L9.81451 19.7542Z" fill="#121615"/>
</svg>
