<svg width="24" height="24" viewBox="0 0 24 24" fill="none" xmlns="http://www.w3.org/2000/svg">
<path fill-rule="evenodd" clip-rule="evenodd" d="M4.98926 10.3925V10.4042C5.05653 12.2861 5.70754 14.1007 6.85222 15.5963L6.85702 15.6025C8.19782 17.3931 9.8432 18.9337 11.718 20.154C11.7465 20.1725 11.7737 20.193 11.7995 20.2153C11.8673 20.2739 11.9678 20.2739 12.0356 20.2153C12.062 20.1924 12.09 20.1714 12.1194 20.1524C13.3771 19.3405 14.5366 18.3861 15.5752 17.308C17.3982 15.3835 18.7962 13.0101 18.8458 10.5231V10.4434L18.8458 10.4409C18.8588 6.61448 15.7674 3.50205 11.9411 3.48905C8.1151 3.47606 5.00293 6.56673 4.98926 10.3925ZM3.48926 10.3887C3.50508 5.73389 7.29136 1.97325 11.9462 1.98906C16.6006 2.00488 20.361 5.79054 20.3458 10.4448V10.5304L20.3456 10.5446C20.2884 13.5672 18.6101 16.286 16.6619 18.3419L16.6578 18.3463C15.549 19.4976 14.3121 20.5182 12.9711 21.388C12.3561 21.8834 11.4773 21.883 10.8627 21.387C8.85689 20.0753 7.09569 18.423 5.65867 16.5048C4.32332 14.7588 3.56518 12.64 3.4897 10.4431C3.48941 10.4345 3.48926 10.4259 3.48926 10.4173L3.48926 10.3887ZM11.9175 8.82819C10.9726 8.82819 10.2066 9.59417 10.2066 10.5391C10.2066 11.4839 10.9726 12.2499 11.9175 12.2499C12.8624 12.2499 13.6284 11.4839 13.6284 10.5391C13.6284 9.59417 12.8624 8.82819 11.9175 8.82819ZM8.70665 10.5391C8.70665 8.76574 10.1442 7.32819 11.9175 7.32819C13.6908 7.32819 15.1284 8.76574 15.1284 10.5391C15.1284 12.3124 13.6908 13.7499 11.9175 13.7499C10.1442 13.7499 8.70665 12.3124 8.70665 10.5391Z" fill="#121615"/>
</svg>
