<svg width="24" height="24" viewBox="0 0 24 24" fill="none" xmlns="http://www.w3.org/2000/svg">
<path fill-rule="evenodd" clip-rule="evenodd" d="M5.00006 4C2.929 4 1.25006 5.67893 1.25006 7.75V7.98951C1.24998 7.99607 1.24998 8.00263 1.25006 8.00919V15.75C1.25006 17.8211 2.929 19.5 5.00006 19.5H19.0001C21.0711 19.5 22.7501 17.8211 22.7501 15.75V8.00917C22.7502 8.00263 22.7502 7.99607 22.7501 7.98952V7.75C22.7501 5.67893 21.0711 4 19.0001 4H5.00006ZM21.2459 7.6124C21.1748 6.43384 20.1965 5.5 19.0001 5.5H5.00006C3.80363 5.5 2.8253 6.43384 2.7542 7.61241L10.7098 13.1813C11.4845 13.7236 12.5156 13.7236 13.2904 13.1813L21.2459 7.6124ZM2.75006 9.44049V15.75C2.75006 16.9926 3.75742 18 5.00006 18H19.0001C20.2427 18 21.2501 16.9926 21.2501 15.75V9.44049L14.1505 14.4102C12.8593 15.314 11.1408 15.314 9.84958 14.4102L2.75006 9.44049Z" fill="#121615"/>
</svg>
