<svg width="40" height="40" viewBox="0 0 40 40" fill="none" xmlns="http://www.w3.org/2000/svg">
<path d="M0 20C0 8.95431 8.95431 0 20 0C31.0457 0 40 8.95431 40 20C40 31.0457 31.0457 40 20 40C8.95431 40 0 31.0457 0 20Z" fill="#D79248"/>
<path fill-rule="evenodd" clip-rule="evenodd" d="M29.7143 9.28571V8L28.2929 9.42139C28.1054 9.60893 28 9.86328 28 10.1285V10.9393L19.4697 19.4697C19.1768 19.7626 19.1768 20.2374 19.4697 20.5303C19.7626 20.8232 20.2374 20.8232 20.5303 20.5303L22.7664 18.2943C23.0487 18.7521 23.215 19.2763 23.2451 19.8212C23.2891 20.6201 23.0369 21.4071 22.5367 22.0317C22.0365 22.6562 21.3236 23.0742 20.5343 23.2058C19.7451 23.3373 18.9351 23.1731 18.2594 22.7446C17.5837 22.3161 17.0898 21.6534 16.8724 20.8834C16.6549 20.1134 16.7291 19.2902 17.0808 18.5715C17.4324 17.8528 18.0369 17.2891 18.7783 16.9884C19.5197 16.6876 20.3461 16.6709 21.099 16.9415L21.6063 15.5298C21.3265 15.4293 21.0398 15.3559 20.75 15.3096V13.7951C21.2777 13.8589 21.799 13.9902 22.3009 14.1889L22.853 12.7942C22.1738 12.5253 21.4657 12.3559 20.75 12.2864V10.7805C21.7555 10.8622 22.7493 11.1086 23.6901 11.5179L24.2884 10.1424C23.1572 9.65028 21.9601 9.36081 20.75 9.27619V9C20.75 8.58579 20.4142 8.25 20 8.25C19.5858 8.25 19.25 8.58579 19.25 9V9.27618C18.3323 9.34034 17.4196 9.52253 16.5351 9.82369C14.0012 10.6865 11.8802 12.4636 10.5872 14.8075C9.82629 16.1869 9.38433 17.7042 9.27619 19.25H9C8.58579 19.25 8.25 19.5858 8.25 20C8.25 20.4142 8.58579 20.75 9 20.75H9.27616C9.31709 21.3352 9.4061 21.9194 9.54399 22.4969C10.1657 25.1005 11.7365 27.3785 13.949 28.8853C15.5331 29.9641 17.3646 30.5919 19.25 30.7238V31C19.25 31.4142 19.5858 31.75 20 31.75C20.4142 31.75 20.75 31.4142 20.75 31V30.7238C21.0024 30.7062 21.2549 30.6795 21.507 30.6439C24.1574 30.2686 26.5724 28.918 28.2797 26.8563C29.7189 25.1183 30.5679 22.9803 30.7238 20.75H31C31.4142 20.75 31.75 20.4142 31.75 20C31.75 19.5858 31.4142 19.25 31 19.25H30.7238C30.5607 16.9171 29.6416 14.7055 28.1132 12.9474L29.0607 12H29.8715C30.1367 12 30.3911 11.8946 30.5786 11.7071L32 10.2857H30.7143C30.162 10.2857 29.7143 9.838 29.7143 9.28571ZM19.25 15.3096V13.7952C18.7627 13.8541 18.2805 13.9706 17.8138 14.1448C16.3643 14.6861 15.167 15.7458 14.4537 17.1189C14.1053 17.7897 13.8844 18.512 13.7952 19.25H15.3096C15.3833 18.7892 15.525 18.3382 15.7334 17.9122C16.2474 16.8618 17.1308 16.038 18.2144 15.5984C18.55 15.4622 18.8975 15.3659 19.25 15.3096ZM15.3096 20.75H13.7952C13.8288 21.0278 13.8812 21.3045 13.9526 21.5781C14.3433 23.0753 15.2754 24.3743 16.5687 25.2238C17.3812 25.7575 18.3 26.09 19.25 26.2048V24.6904C18.6172 24.5892 18.0062 24.3602 17.456 24.0113C16.4685 23.385 15.7467 22.4165 15.4288 21.2911C15.3784 21.1124 15.3386 20.9317 15.3096 20.75ZM20.75 24.6904V26.2048C20.8179 26.1966 20.8858 26.1873 20.9535 26.1768C22.4827 25.9408 23.87 25.1459 24.8469 23.946C25.5969 23.0247 26.0641 21.915 26.2049 20.75H24.6904C24.5614 21.5568 24.2254 22.3227 23.7075 22.9693C22.9765 23.8821 21.9344 24.4931 20.781 24.6854C20.7706 24.6871 20.7603 24.6888 20.75 24.6904ZM24.6904 19.25H26.2049C26.0677 18.1143 25.6214 17.0398 24.9179 16.1428L23.847 17.2137C24.2831 17.8159 24.5727 18.5134 24.6904 19.25ZM19.25 12.2864V10.7804C18.4956 10.8418 17.7461 10.996 17.0186 11.2436C14.8382 11.986 13.0132 13.5152 11.9006 15.532C11.2631 16.6878 10.8857 17.9561 10.7805 19.25H12.2865C12.3815 18.2725 12.6622 17.3137 13.1226 16.4274C14.0071 14.7248 15.4917 13.4108 17.2891 12.7396C17.9253 12.5021 18.5845 12.3511 19.25 12.2864ZM12.2864 20.75H10.7804C10.8185 21.2185 10.8925 21.686 11.003 22.1485C11.538 24.3888 12.8895 26.3489 14.7933 27.6455C16.1271 28.5538 17.6646 29.0906 19.25 29.2196V27.7136C18.0082 27.5928 16.8039 27.173 15.7452 26.4775C14.1415 25.4241 12.9856 23.8133 12.5012 21.9568C12.3973 21.5585 12.3258 21.155 12.2864 20.75ZM20.75 27.7136V29.2196C20.9323 29.2047 21.1146 29.1844 21.2967 29.1587C23.5773 28.8358 25.6553 27.6737 27.1244 25.8996C28.3403 24.4313 29.0666 22.6313 29.2196 20.75H27.7137C27.5669 22.2602 26.9787 23.7033 26.0102 24.893C24.7988 26.3809 23.0786 27.3666 21.1824 27.6593C21.0384 27.6815 20.8943 27.6996 20.75 27.7136ZM27.7137 19.25H29.2195C29.0623 17.3162 28.3011 15.4842 27.0495 14.0111L25.9847 15.0759C26.9609 16.2623 27.5645 17.715 27.7137 19.25Z" fill="white"/>
</svg>
