<svg width="24" height="24" viewBox="0 0 24 24" fill="none" xmlns="http://www.w3.org/2000/svg">
<path fill-rule="evenodd" clip-rule="evenodd" d="M20.926 1L1.72223 4.38614L2.15054 6.81523H0V20.3152H12V18.8152H1.5V8.31523H18V11H19.5V6.81523H3.67368L3.45991 5.60288L19.7092 2.73768L21.1661 11H22.6892L20.926 1ZM12 13.5652C12 12.3226 10.9926 11.3152 9.75 11.3152C8.50736 11.3152 7.5 12.3226 7.5 13.5652C7.5 14.8079 8.50736 15.8152 9.75 15.8152C10.9926 15.8152 12 14.8079 12 13.5652ZM5.75 11.3152H2.75V9.81524H5.75V11.3152ZM9 13.5652C9 13.151 9.33579 12.8152 9.75 12.8152C10.1642 12.8152 10.5 13.151 10.5 13.5652C10.5 13.9794 10.1642 14.3152 9.75 14.3152C9.33579 14.3152 9 13.9794 9 13.5652Z" fill="#121615"/>
<path fill-rule="evenodd" clip-rule="evenodd" d="M19.3565 13.0865C19.4015 13.0867 19.4465 13.0876 19.4916 13.0893C19.6535 13.0951 19.8146 13.1098 19.9743 13.1332L19.8 14.3205C19.6838 14.3034 19.5665 14.2927 19.4486 14.2885C19.3906 14.2864 19.3326 14.2859 19.2748 14.287C18.7664 14.2962 18.2666 14.4261 17.8168 14.6668C17.3159 14.935 16.895 15.3311 16.5971 15.8149C16.2992 16.2987 16.1348 16.8528 16.1208 17.4208C16.1068 17.9888 16.2437 18.5504 16.5174 19.0482C16.7911 19.5461 17.192 19.9625 17.6791 20.255C18.1662 20.5475 18.7221 20.7056 19.2902 20.7133C19.8583 20.7209 20.4183 20.5778 20.9131 20.2985C21.396 20.0259 21.7999 19.6331 22.0859 19.1586C22.1769 19.0075 22.255 18.8497 22.3196 18.687L23.4347 19.1303C23.3528 19.3364 23.2552 19.5368 23.1424 19.7295C22.7482 20.403 22.1825 20.9599 21.503 21.3435C20.8235 21.7271 20.0544 21.9236 19.2741 21.9131C18.4938 21.9027 17.7303 21.6855 17.0613 21.2838C16.3923 20.8821 15.8418 20.3102 15.4659 19.6264C15.0899 18.9426 14.902 18.1713 14.9212 17.3913C14.9404 16.6112 15.1661 15.8501 15.5753 15.1857C15.9845 14.5212 16.5625 13.9771 17.2505 13.6089C17.8682 13.2782 18.5547 13.0999 19.253 13.0872C19.2668 13.0869 19.2807 13.0867 19.2945 13.0866C19.3152 13.0864 19.3358 13.0864 19.3565 13.0865ZM18.7335 15.2118H19.9335V17.1602L21.549 18.1295L20.9316 19.1585L18.7335 17.8397V15.2118ZM20.4373 14.482C20.6017 14.5421 20.7615 14.6158 20.915 14.7026C21.0686 14.7895 21.2141 14.8884 21.3504 14.9983L22.1036 14.0641C21.9164 13.9132 21.7166 13.7773 21.5057 13.6581C21.2948 13.5388 21.0753 13.4376 20.8495 13.355L20.4373 14.482ZM21.8173 15.4611C21.9284 15.5964 22.0286 15.7411 22.1167 15.8939C22.2049 16.0467 22.28 16.2058 22.3416 16.3697L23.4649 15.9476C23.3803 15.7226 23.2772 15.504 23.1561 15.2941C23.0351 15.0843 22.8974 14.8856 22.7448 14.6998L21.8173 15.4611ZM22.5086 17.0055C22.5356 17.1785 22.5484 17.354 22.5467 17.5304C22.5451 17.7068 22.5289 17.8821 22.4987 18.0545L23.6807 18.2615C23.7222 18.0247 23.7444 17.784 23.7467 17.5418C23.749 17.2995 23.7313 17.0585 23.6943 16.8209L22.5086 17.0055Z" fill="#121615"/>
</svg>
