<svg width="24" height="24" viewBox="0 0 24 24" fill="none" xmlns="http://www.w3.org/2000/svg">
<path d="M10.8002 7.2C10.8002 6.87 10.9177 6.58753 11.1528 6.3526C11.3877 6.11753 11.6702 6 12.0002 6C12.3302 6 12.6127 6.11753 12.8476 6.3526C13.0827 6.58753 13.2002 6.87 13.2002 7.2C13.2002 7.53 13.0827 7.81253 12.8476 8.0476C12.6127 8.28253 12.3302 8.4 12.0002 8.4C11.6702 8.4 11.3877 8.28253 11.1528 8.0476C10.9177 7.81253 10.8002 7.53 10.8002 7.2ZM10.8002 12C10.8002 11.67 10.9177 11.3875 11.1528 11.1526C11.3877 10.9175 11.6702 10.8 12.0002 10.8C12.3302 10.8 12.6127 10.9175 12.8476 11.1526C13.0827 11.3875 13.2002 11.67 13.2002 12C13.2002 12.33 13.0827 12.6125 12.8476 12.8474C12.6127 13.0825 12.3302 13.2 12.0002 13.2C11.6702 13.2 11.3877 13.0825 11.1528 12.8474C10.9177 12.6125 10.8002 12.33 10.8002 12ZM10.8002 16.8C10.8002 16.47 10.9177 16.1875 11.1528 15.9524C11.3877 15.7175 11.6702 15.6 12.0002 15.6C12.3302 15.6 12.6127 15.7175 12.8476 15.9524C13.0827 16.1875 13.2002 16.47 13.2002 16.8C13.2002 17.13 13.0827 17.4125 12.8476 17.6474C12.6127 17.8825 12.3302 18 12.0002 18C11.6702 18 11.3877 17.8825 11.1528 17.6474C10.9177 17.4125 10.8002 17.13 10.8002 16.8Z" fill="#121615"/>
</svg>
