<svg width="40" height="40" viewBox="0 0 40 40" fill="none" xmlns="http://www.w3.org/2000/svg">
<path d="M0 20C0 8.95431 8.95431 0 20 0C31.0457 0 40 8.95431 40 20C40 31.0457 31.0457 40 20 40C8.95431 40 0 31.0457 0 20Z" fill="#5AC88C"/>
<path d="M21.5135 11.3896C20.6553 10.6094 19.3447 10.6094 18.4865 11.3896L9.5045 19.555L8.4955 18.4451L12.285 15.0001H12.25V10.0001H13.75V13.6683L17.4775 10.2797C18.9078 8.97937 21.0922 8.97937 22.5225 10.2797L31.5045 18.4451L30.4955 19.555L21.5135 11.3896Z" fill="white"/>
<path fill-rule="evenodd" clip-rule="evenodd" d="M12.75 29.25V19.0001H11.25V29.25H8V30.75H20.75V26C20.75 24.4812 19.5188 23.25 18 23.25C16.4812 23.25 15.25 24.4812 15.25 26V29.25H12.75ZM16.75 26C16.75 25.3096 17.3096 24.75 18 24.75C18.6904 24.75 19.25 25.3096 19.25 26V29.25H16.75V26Z" fill="white"/>
<path d="M18.75 16.0001V19.0001H17.25V16.0001H18.75Z" fill="white"/>
<path d="M22.75 19.0001V16.0001H21.25V19.0001H22.75Z" fill="white"/>
<path d="M24.8284 21.8284L23.0963 24.8284H26.5604L26.0244 23.9C26.2575 23.8266 26.4992 23.7795 26.745 23.7601C27.3425 23.7131 27.9414 23.8322 28.4755 24.1043C29.0095 24.3765 29.4579 24.7909 29.7711 25.302C30.0843 25.813 30.25 26.4007 30.25 27.0001H31.75C31.75 26.1241 31.5078 25.2652 31.05 24.5182C30.5923 23.7713 29.937 23.1655 29.1565 22.7678C28.3759 22.3701 27.5006 22.196 26.6273 22.2648C26.157 22.3018 25.697 22.4085 25.262 22.5795L24.8284 21.8284Z" fill="white"/>
<path d="M27.3727 31.7354C26.4994 31.8041 25.6241 31.63 24.8435 31.2323C24.063 30.8346 23.4077 30.2288 22.95 29.4819C22.4922 28.7349 22.25 27.876 22.25 27H23.75C23.75 27.5994 23.9157 28.1871 24.2289 28.6981C24.5421 29.2092 24.9905 29.6237 25.5245 29.8958C26.0586 30.1679 26.6575 30.287 27.255 30.24C27.6837 30.2062 28.0996 30.0879 28.4795 29.8937L27.8965 29.3107L31.2426 28.4141L30.346 31.7602L29.5764 30.9906C28.9161 31.4169 28.159 31.6735 27.3727 31.7354Z" fill="white"/>
</svg>
