<svg width="24" height="24" viewBox="0 0 24 24" fill="none" xmlns="http://www.w3.org/2000/svg">
<path d="M13.5135 3.38958C12.6553 2.6094 11.3447 2.6094 10.4865 3.38958L1.5045 11.555L0.495495 10.4451L4.28504 7.00006H4.25V2.00006H5.75V5.66828L9.47748 2.27967C10.9078 0.97937 13.0922 0.979367 14.5225 2.27967L23.5045 10.4451L22.4955 11.555L13.5135 3.38958Z" fill="#070A15"/>
<path fill-rule="evenodd" clip-rule="evenodd" d="M4.75 21.25V11.0001H3.25V21.25H0V22.75H12.75V18C12.75 16.4812 11.5188 15.25 10 15.25C8.48122 15.25 7.25 16.4812 7.25 18V21.25H4.75ZM8.75 18C8.75 17.3096 9.30964 16.75 10 16.75C10.6904 16.75 11.25 17.3096 11.25 18V21.25H8.75V18Z" fill="#070A15"/>
<path d="M10.75 8.00006V11.0001H9.25V8.00006H10.75Z" fill="#070A15"/>
<path d="M14.75 11.0001V8.00006H13.25V11.0001H14.75Z" fill="#070A15"/>
<path d="M16.8284 13.8284L15.0963 16.8284H18.5604L18.0244 15.9C18.2575 15.8266 18.4992 15.7795 18.745 15.7601C19.3425 15.7131 19.9414 15.8322 20.4755 16.1043C21.0095 16.3765 21.4579 16.7909 21.7711 17.302C22.0843 17.813 22.25 18.4007 22.25 19.0001H23.75C23.75 18.1241 23.5078 17.2652 23.05 16.5182C22.5923 15.7713 21.937 15.1655 21.1565 14.7678C20.3759 14.3701 19.5006 14.196 18.6273 14.2648C18.157 14.3018 17.697 14.4085 17.262 14.5795L16.8284 13.8284Z" fill="#070A15"/>
<path d="M19.3727 23.7354C18.4994 23.8041 17.6241 23.63 16.8435 23.2323C16.063 22.8346 15.4077 22.2288 14.95 21.4819C14.4922 20.7349 14.25 19.876 14.25 19H15.75C15.75 19.5994 15.9157 20.1871 16.2289 20.6981C16.5421 21.2092 16.9905 21.6237 17.5245 21.8958C18.0586 22.1679 18.6575 22.287 19.255 22.24C19.6837 22.2062 20.0996 22.0879 20.4795 21.8937L19.8965 21.3107L23.2426 20.4141L22.346 23.7602L21.5764 22.9906C20.9161 23.4169 20.159 23.6735 19.3727 23.7354Z" fill="#070A15"/>
</svg>
