<svg width="24" height="24" viewBox="0 0 24 24" fill="none" xmlns="http://www.w3.org/2000/svg">
<path fill-rule="evenodd" clip-rule="evenodd" d="M13.6154 5.92653C13.0171 4.49064 10.9829 4.49063 10.3846 5.92653L6.30769 15.7111C6.14838 16.0935 6.32919 16.5326 6.71154 16.6919C7.09389 16.8512 7.53299 16.6704 7.69231 16.2881L9.16667 12.7496H14.8333L16.3077 16.2881C16.467 16.6704 16.9061 16.8512 17.2885 16.6919C17.6708 16.5326 17.8516 16.0935 17.6923 15.7111L13.6154 5.92653ZM14.2083 11.2496H9.79167L11.7692 6.50346C11.8547 6.29833 12.1453 6.29833 12.2308 6.50346L14.2083 11.2496Z" fill="#121615"/>
<path d="M5 18.2496C4.58579 18.2496 4.25 18.5854 4.25 18.9996C4.25 19.4138 4.58579 19.7496 5 19.7496H19C19.4142 19.7496 19.75 19.4138 19.75 18.9996C19.75 18.5854 19.4142 18.2496 19 18.2496H5Z" fill="#121615"/>
</svg>
