<svg width="24" height="24" viewBox="0 0 24 24" fill="none" xmlns="http://www.w3.org/2000/svg">
<path fill-rule="evenodd" clip-rule="evenodd" d="M2.35398 8.88111C2.14356 8.52432 2.26222 8.06451 2.61901 7.8541L8.64652 4.29941C9.50846 3.79109 10.5785 3.79109 11.4404 4.29941L13.3215 5.40878C13.7133 5.63984 14.1997 5.63984 14.5915 5.40878L20.619 1.8541C20.9758 1.64368 21.4356 1.76234 21.646 2.11913C21.8564 2.47592 21.7378 2.93573 21.381 3.14615L15.3535 6.70083C14.4915 7.20916 13.4215 7.20916 12.5596 6.70083L10.6785 5.59146C10.2867 5.3604 9.80029 5.3604 9.4085 5.59146L3.38099 9.14615C3.0242 9.35656 2.56439 9.2379 2.35398 8.88111Z" fill="black"/>
<path fill-rule="evenodd" clip-rule="evenodd" d="M21 5.75012C21.4142 5.75012 21.75 5.41434 21.75 5.00012V1.25012H18C17.5858 1.25012 17.25 1.58591 17.25 2.00012C17.25 2.41434 17.5858 2.75012 18 2.75012H20.25V5.00012C20.25 5.41434 20.5858 5.75012 21 5.75012Z" fill="black"/>
<path fill-rule="evenodd" clip-rule="evenodd" d="M22.75 8.25H16.25V21.75H22.75V8.25ZM21.25 9.75V20.25H17.75V9.75H21.25Z" fill="black"/>
<path fill-rule="evenodd" clip-rule="evenodd" d="M17.75 11.25H11.25V21.75H17.75V11.25ZM16.25 12.75V20.25H12.75V12.75H16.25Z" fill="black"/>
<path fill-rule="evenodd" clip-rule="evenodd" d="M12.75 10.25H6.25V21.75H12.75V10.25ZM11.25 11.75V20.25H7.75V11.75H11.25Z" fill="black"/>
<path fill-rule="evenodd" clip-rule="evenodd" d="M7.75 13.25H1.25V21.75H7.75V13.25ZM6.25 14.75V20.25H2.75V14.75H6.25Z" fill="black"/>
</svg>
