<svg width="24" height="24" viewBox="0 0 24 24" fill="none" xmlns="http://www.w3.org/2000/svg">
<path d="M11 2.25C10.5858 2.25 10.25 2.58579 10.25 3C10.25 3.41421 10.5858 3.75 11 3.75H13C13.4142 3.75 13.75 3.41421 13.75 3C13.75 2.58579 13.4142 2.25 13 2.25H11Z" fill="black"/>
<path fill-rule="evenodd" clip-rule="evenodd" d="M4.25 18.2499V12C4.25 7.71979 7.71979 4.25 12 4.25C16.2802 4.25 19.75 7.71979 19.75 12V18.2499H21C21.4142 18.2499 21.75 18.5857 21.75 18.9999C21.75 19.4141 21.4142 19.7499 21 19.7499H3C2.58579 19.7499 2.25 19.4141 2.25 18.9999C2.25 18.5857 2.58579 18.2499 3 18.2499H4.25ZM5.75 12C5.75 8.54822 8.54822 5.75 12 5.75C15.4518 5.75 18.25 8.54822 18.25 12V18.2499H5.75V12Z" fill="black"/>
<path d="M12.25 21.9999C12.25 21.5857 12.5858 21.2499 13 21.2499H17C17.4142 21.2499 17.75 21.5857 17.75 21.9999C17.75 22.4141 17.4142 22.7499 17 22.7499H13C12.5858 22.7499 12.25 22.4141 12.25 21.9999Z" fill="black"/>
</svg>
