<svg width="40" height="40" viewBox="0 0 40 40" fill="none" xmlns="http://www.w3.org/2000/svg">
<rect width="40" height="40" rx="20" fill="#8FB205"/>
<path fill-rule="evenodd" clip-rule="evenodd" d="M16.2502 13C16.2502 12.0335 17.0337 11.25 18.0002 11.25H22.0002C22.9667 11.25 23.7502 12.0335 23.7502 13V14.25H27.0002C28.519 14.25 29.7502 15.4812 29.7502 17V19.9825C29.7505 19.9942 29.7505 20.0058 29.7502 20.0174V26C29.7502 27.5188 28.519 28.75 27.0002 28.75H13.0002C11.4814 28.75 10.2502 27.5188 10.2502 26V20.0171C10.2499 20.0056 10.2499 19.9941 10.2502 19.9825V17C10.2502 15.4812 11.4814 14.25 13.0002 14.25H16.2502V13ZM11.7502 21.0906V26C11.7502 26.6904 12.3098 27.25 13.0002 27.25H27.0002C27.6906 27.25 28.2502 26.6904 28.2502 26V21.0543C24.9477 22.1712 22.3078 22.75 19.7192 22.75C17.1585 22.75 14.6999 22.1838 11.7502 21.0906ZM28.2502 19.4686C24.784 20.6719 22.1944 21.25 19.7192 21.25C17.2575 21.25 14.8508 20.6781 11.7502 19.4873V17C11.7502 16.3096 12.3098 15.75 13.0002 15.75H27.0002C27.6906 15.75 28.2502 16.3096 28.2502 17V19.4686ZM22.2502 13V14.25H17.7502V13C17.7502 12.8619 17.8621 12.75 18.0002 12.75H22.0002C22.1383 12.75 22.2502 12.8619 22.2502 13Z" fill="white"/>
</svg>
