<svg width="24" height="24" viewBox="0 0 24 24" fill="none" xmlns="http://www.w3.org/2000/svg">
<path fill-rule="evenodd" clip-rule="evenodd" d="M5.7642 4.38062C5.61287 4.38062 5.53842 4.49483 5.54395 4.58327C5.64017 6.12151 5.96835 7.62555 6.50862 9.04736L8.54172 7.01425C8.60083 6.95515 8.62649 6.87041 8.61009 6.78845L8.16872 4.58159C8.14535 4.46473 8.04275 4.38062 7.92358 4.38062L5.7642 4.38062ZM7.15848 10.5188L9.60239 8.07491C10.0161 7.66117 10.1957 7.06803 10.081 6.49427L9.63959 4.28741C9.47599 3.46942 8.75777 2.88062 7.92358 2.88062L5.7642 2.88062C4.81095 2.88062 3.98346 3.66294 4.04688 4.67691C4.17777 6.76957 4.69952 8.80453 5.57052 10.6815C6.38965 12.4467 7.51774 14.0722 8.92016 15.4747C11.8139 18.3684 15.6573 20.0939 19.7179 20.3479C20.7319 20.4114 21.5142 19.5839 21.5142 18.6306V16.4712C21.5142 15.637 20.9254 14.9188 20.1074 14.7552L17.9005 14.3138C17.3268 14.1991 16.7336 14.3787 16.3199 14.7924L13.876 17.2363C12.4495 16.5142 11.1325 15.5657 9.98082 14.414C8.82908 13.2623 7.88063 11.9453 7.15848 10.5188ZM15.3475 17.8862C16.7692 18.4264 18.2733 18.7546 19.8115 18.8509C19.9 18.8564 20.0142 18.7819 20.0142 18.6306L20.0142 16.4712C20.0142 16.3521 19.9301 16.2495 19.8132 16.2261L17.6064 15.7847C17.5244 15.7683 17.4397 15.794 17.3806 15.8531L15.3475 17.8862Z" fill="#121615"/>
</svg>
