<svg width="24" height="24" viewBox="0 0 24 24" fill="none" xmlns="http://www.w3.org/2000/svg">
<path fill-rule="evenodd" clip-rule="evenodd" d="M10.4865 3.38958C11.3447 2.6094 12.6553 2.6094 13.5135 3.38958L16.9898 6.54982L19.1825 8.62713L20.2141 7.5382L18.0158 5.4556L18.0102 5.45029L18.0045 5.44511L14.5225 2.27967C13.0922 0.979367 10.9078 0.97937 9.47748 2.27967L5.75 5.66828V2.00006H4.25V7.00006H4.28504L0.495495 10.4451L1.5045 11.555L10.4865 3.38958ZM4.75 11.0001V21.2501H10V22.7501H0V21.2501H3.25V11.0001H4.75ZM14.9127 11.1357C13.5241 11.1357 12.3985 12.2614 12.3985 13.6499V14.532C12.3985 15.9205 13.5241 17.0462 14.9127 17.0462C16.3012 17.0462 17.4268 15.9205 17.4268 14.532V13.6499C17.4268 12.2614 16.3012 11.1357 14.9127 11.1357ZM13.8985 13.6499C13.8985 13.0898 14.3526 12.6357 14.9127 12.6357C15.4728 12.6357 15.9268 13.0898 15.9268 13.6499V14.532C15.9268 15.0921 15.4728 15.5462 14.9127 15.5462C14.3526 15.5462 13.8985 15.0921 13.8985 14.532V13.6499ZM22.3211 11.7965L12.6182 21.4995L13.6788 22.5601L23.3817 12.8572L22.3211 11.7965ZM18.573 19.8244C18.573 18.4359 19.6986 17.3102 21.0871 17.3102C22.4757 17.3102 23.6013 18.4359 23.6013 19.8244V20.7065C23.6013 22.095 22.4757 23.2206 21.0871 23.2206C19.6986 23.2206 18.573 22.095 18.573 20.7065V19.8244ZM21.0871 18.8102C20.527 18.8102 20.073 19.2643 20.073 19.8244V20.7065C20.073 21.2666 20.527 21.7206 21.0871 21.7206C21.6472 21.7206 22.1013 21.2666 22.1013 20.7065V19.8244C22.1013 19.2643 21.6472 18.8102 21.0871 18.8102Z" fill="#121615"/>
</svg>
