<svg width="24" height="24" viewBox="0 0 24 24" fill="none" xmlns="http://www.w3.org/2000/svg">
<path d="M8.50056 10.0072H9.29276V8.40002H10.7928V10.0072H11.4758C12.3603 10.0072 13.2053 10.4651 13.6314 11.2462C13.8297 11.6099 13.6957 12.0655 13.3321 12.2638C12.9685 12.4622 12.5129 12.3282 12.3145 11.9645C12.1735 11.706 11.8593 11.5072 11.4758 11.5072H8.50056C7.82992 11.5072 7.39991 11.991 7.39991 12.4536C7.39991 12.9162 7.82992 13.4 8.50056 13.4H11.585C12.9585 13.4 14.1856 14.4352 14.1856 15.8465C14.1856 17.2577 12.9585 18.2929 11.585 18.2929H10.7928V19.9H9.29276V18.2929H8.34179C7.6721 18.2929 7.01812 18.0496 6.5264 17.5989L6.14311 17.2475C5.83777 16.9676 5.81715 16.4932 6.09704 16.1879C6.37694 15.8825 6.85136 15.8619 7.1567 16.1418L7.53998 16.4931C7.74239 16.6787 8.02984 16.7929 8.34179 16.7929H11.585C12.2556 16.7929 12.6856 16.3091 12.6856 15.8465C12.6856 15.3838 12.2556 14.9 11.585 14.9H8.50056C7.12702 14.9 5.89991 13.8648 5.89991 12.4536C5.89991 11.0424 7.12702 10.0072 8.50056 10.0072Z" fill="black"/>
<path fill-rule="evenodd" clip-rule="evenodd" d="M14.6457 0.369252C15.8672 0.152455 17.1229 0.232075 18.3073 0.60142C19.4916 0.970764 20.57 1.61904 21.4518 2.49175C22.3335 3.36446 22.9929 4.4361 23.3744 5.61658C23.7559 6.79707 23.8485 8.05189 23.6443 9.27558C23.4401 10.4993 22.9451 11.6561 22.201 12.6487C21.5356 13.5363 20.6883 14.2695 19.7176 14.8001C19.3107 19.8106 15.1154 23.75 10 23.75C4.61522 23.75 0.25 19.3848 0.25 14C0.25 8.88462 4.18937 4.68933 9.19988 4.28236C9.71753 3.33549 10.4281 2.50556 11.2876 1.84728C12.2725 1.09293 13.4242 0.58605 14.6457 0.369252ZM21.0008 11.749C20.6322 12.2406 20.1945 12.6735 19.7028 13.035C19.2495 8.42067 15.5793 4.7505 10.965 4.29715C11.3138 3.82287 11.7291 3.39859 12.1997 3.03813C12.994 2.42978 13.9227 2.02101 14.9078 1.84617C15.8929 1.67133 16.9056 1.73554 17.8607 2.0334C18.8158 2.33126 19.6855 2.85406 20.3966 3.55786C21.1077 4.26166 21.6394 5.12589 21.9471 6.07789C22.2548 7.02989 22.3294 8.04185 22.1648 9.0287C22.0001 10.0155 21.6009 10.9484 21.0008 11.749ZM10 5.75C5.44365 5.75 1.75 9.44365 1.75 14C1.75 18.5563 5.44365 22.25 10 22.25C14.5563 22.25 18.25 18.5563 18.25 14C18.25 9.44365 14.5563 5.75 10 5.75Z" fill="black"/>
</svg>
