<svg width="24" height="24" viewBox="0 0 24 24" fill="none" xmlns="http://www.w3.org/2000/svg">
<path fill-rule="evenodd" clip-rule="evenodd" d="M14 14.7929C14 13.5547 15.0038 12.5509 16.242 12.5509C17.4802 12.5509 18.484 13.5547 18.484 14.7929V15.5389C18.484 16.7772 17.4802 17.7809 16.242 17.7809C15.0038 17.7809 14 16.7772 14 15.5389V14.7929ZM16.242 14.0509C15.8322 14.0509 15.5 14.3831 15.5 14.7929V15.5389C15.5 15.9487 15.8322 16.2809 16.242 16.2809C16.6518 16.2809 16.984 15.9487 16.984 15.5389V14.7929C16.984 14.3831 16.6518 14.0509 16.242 14.0509ZM14.2197 21.3498L22.4258 13.1437L23.4864 14.2043L15.2803 22.4104L14.2197 21.3498ZM21.4641 17.7729C20.2258 17.7729 19.2221 18.7766 19.2221 20.0149V20.7609C19.2221 21.9991 20.2258 23.0029 21.4641 23.0029C22.7023 23.0029 23.7061 21.9991 23.7061 20.7609V20.0149C23.7061 18.7766 22.7023 17.7729 21.4641 17.7729ZM20.7221 20.0149C20.7221 19.6051 21.0543 19.2729 21.4641 19.2729C21.8739 19.2729 22.2061 19.6051 22.2061 20.0149V20.7609C22.2061 21.1707 21.8739 21.5029 21.4641 21.5029C21.0543 21.5029 20.7221 21.1707 20.7221 20.7609V20.0149Z" fill="#121615"/>
<path fill-rule="evenodd" clip-rule="evenodd" d="M20.926 1L1.72223 4.38614L2.15054 6.81523H0V20.3152H12V18.8152H1.5V8.31523H18V11H19.5V6.81523H3.67368L3.45991 5.60288L19.7092 2.73768L21.1661 11H22.6892L20.926 1ZM12 13.5652C12 12.3226 10.9926 11.3152 9.75 11.3152C8.50736 11.3152 7.5 12.3226 7.5 13.5652C7.5 14.8079 8.50736 15.8152 9.75 15.8152C10.9926 15.8152 12 14.8079 12 13.5652ZM5.75 11.3152H2.75V9.81524H5.75V11.3152ZM9 13.5652C9 13.151 9.33579 12.8152 9.75 12.8152C10.1642 12.8152 10.5 13.151 10.5 13.5652C10.5 13.9794 10.1642 14.3152 9.75 14.3152C9.33579 14.3152 9 13.9794 9 13.5652Z" fill="#121615"/>
</svg>
