<svg width="24" height="24" viewBox="0 0 24 24" fill="none" xmlns="http://www.w3.org/2000/svg">
<path fill-rule="evenodd" clip-rule="evenodd" d="M20.926 1L1.72223 4.38614L2.15054 6.81523H0V20.3152H12V18.8152H1.5V8.31523H18V11H19.5V6.81523H3.67368L3.45991 5.60288L19.7092 2.73768L21.1661 11H22.6892L20.926 1ZM12 13.5652C12 12.3226 10.9926 11.3152 9.75 11.3152C8.50736 11.3152 7.5 12.3226 7.5 13.5652C7.5 14.8079 8.50736 15.8152 9.75 15.8152C10.9926 15.8152 12 14.8079 12 13.5652ZM5.75 11.3152H2.75V9.81524H5.75V11.3152ZM9 13.5652C9 13.151 9.33579 12.8152 9.75 12.8152C10.1642 12.8152 10.5 13.151 10.5 13.5652C10.5 13.9794 10.1642 14.3152 9.75 14.3152C9.33579 14.3152 9 13.9794 9 13.5652Z" fill="#121615"/>
<path d="M18.52 13.2374C18.8129 13.5303 18.8129 14.0052 18.52 14.2981L16.2648 16.5533H22.9394C23.3536 16.5533 23.6894 16.8891 23.6894 17.3033C23.6894 17.7175 23.3536 18.0533 22.9394 18.0533L16.2648 18.0533L18.52 20.3085C18.8129 20.6014 18.8129 21.0762 18.52 21.3691C18.2271 21.662 17.7522 21.662 17.4593 21.3691L14.6309 18.5407C13.9475 17.8573 13.9475 16.7492 14.6309 16.0658L17.4593 13.2374C17.7522 12.9445 18.2271 12.9445 18.52 13.2374Z" fill="#121615"/>
</svg>
