<svg width="24" height="24" viewBox="0 0 24 24" fill="none" xmlns="http://www.w3.org/2000/svg">
<path fill-rule="evenodd" clip-rule="evenodd" d="M16.5782 14L14.8462 17H18.3103L17.7743 16.0716C18.0074 15.9983 18.249 15.9511 18.4949 15.9318C19.0924 15.8847 19.6913 16.0039 20.2253 16.276C20.7594 16.5481 21.2078 16.9626 21.521 17.4736C21.8341 17.9847 21.9999 18.5724 21.9999 19.1717H23.4999C23.4999 18.2957 23.2576 17.4368 22.7999 16.6899C22.3422 15.943 21.6869 15.3372 20.9063 14.9395C20.1258 14.5418 19.2505 14.3677 18.3772 14.4364C17.9068 14.4734 17.4469 14.5801 17.0119 14.7511L16.5782 14Z" fill="#121615"/>
<path fill-rule="evenodd" clip-rule="evenodd" d="M16.5935 23.4039C17.3741 23.8016 18.2494 23.9757 19.1227 23.907C19.909 23.8451 20.6661 23.5885 21.3264 23.1622L22.096 23.9318L22.9926 20.5858L19.6465 21.4823L20.2295 22.0653C19.8496 22.2596 19.4337 22.3779 19.005 22.4116C18.4075 22.4586 17.8086 22.3395 17.2745 22.0674C16.7405 21.7953 16.2921 21.3808 15.9789 20.8698C15.6657 20.3587 15.5 19.771 15.5 19.1716H14C14 20.0476 14.2422 20.9066 14.7 21.6535C15.1577 22.4004 15.813 23.0062 16.5935 23.4039Z" fill="#121615"/>
<path fill-rule="evenodd" clip-rule="evenodd" d="M7.75 2V3.25H16.25V2H17.75V3.25H18C20.0711 3.25 21.75 4.92893 21.75 7V13H20.25V9.75H3.75V17C3.75 18.2426 4.75736 19.25 6 19.25H12V20.75H6C3.92893 20.75 2.25 19.0711 2.25 17V7C2.25 4.92893 3.92893 3.25 6 3.25H6.25V2H7.75ZM6.25 6V4.75H6C4.75736 4.75 3.75 5.75736 3.75 7V8.25H20.25V7C20.25 5.75736 19.2426 4.75 18 4.75H17.75V6H16.25V4.75H7.75V6H6.25Z" fill="#121615"/>
</svg>
