<svg width="24" height="24" viewBox="0 0 24 24" fill="none" xmlns="http://www.w3.org/2000/svg">
<path d="M13.5135 3.38958C12.6553 2.6094 11.3447 2.6094 10.4865 3.38958L1.5045 11.555L0.495495 10.4451L4.28504 7.00006H4.25V2.00006H5.75V5.66828L9.47748 2.27967C10.9078 0.97937 13.0922 0.979367 14.5225 2.27967L23.5045 10.4451L22.4955 11.555L13.5135 3.38958Z" fill="#121615"/>
<path fill-rule="evenodd" clip-rule="evenodd" d="M0 21.2501H3.25V11.0001H4.75V21.2501H7.25V18.0001C7.25 16.4813 8.48122 15.2501 10 15.2501C11.5188 15.2501 12.75 16.4813 12.75 18.0001V21.2501H19.25V11.0001H20.75V21.2501H24V22.7501H0V21.2501ZM11.25 21.2501V18.0001C11.25 17.3097 10.6904 16.7501 10 16.7501C9.30964 16.7501 8.75 17.3097 8.75 18.0001V21.2501H11.25Z" fill="#121615"/>
<path d="M10.75 8.00006V11.0001H9.25V8.00006H10.75Z" fill="#121615"/>
<path d="M14.75 11.0001V8.00006H13.25V11.0001H14.75Z" fill="#121615"/>
</svg>
