<svg width="40" height="40" viewBox="0 0 40 40" fill="none" xmlns="http://www.w3.org/2000/svg">
<rect width="40" height="40" rx="20" fill="#858BF2"/>
<path fill-rule="evenodd" clip-rule="evenodd" d="M9.36036 15.8778C8.51595 16.7222 8.51595 18.0913 9.36036 18.9357L11.3576 20.9329C12.202 21.7774 13.5711 21.7774 14.4155 20.9329L15.6919 19.6566L17.7422 21.7069L12.9877 26.4614C12.1432 27.3058 12.1432 28.6749 12.9877 29.5193C13.8321 30.3637 15.2011 30.3637 16.0456 29.5193L20.8001 24.7648L25.1802 29.1449C25.8636 29.8283 26.9716 29.8283 27.6551 29.1449C28.3385 28.4615 28.3385 27.3535 27.6551 26.67L23.275 22.2899L24.3164 21.2485C24.7114 20.8535 25.3868 20.7243 26.2261 20.8C27.3952 20.9053 28.5641 20.5949 29.5269 19.9232C30.4897 19.2516 31.1846 18.2618 31.4895 17.1282C31.7943 15.9945 31.6894 14.7897 31.1933 13.7258L30.7406 12.755L27.6954 15.8002H26.7264V14.8313L29.7731 11.7846L28.8127 11.3285C27.7523 10.825 26.5482 10.7117 25.4125 11.0086C24.2767 11.3055 23.2821 11.9936 22.6038 12.9516C21.9254 13.9097 21.6068 15.0764 21.704 16.2462C21.7756 17.1077 21.6444 17.8047 21.2372 18.2118L20.217 19.232L18.1667 17.1817L19.4086 15.9398C20.2531 15.0954 20.2531 13.7263 19.4086 12.8819L17.4114 10.8847C16.567 10.0402 15.1979 10.0402 14.3535 10.8847L13.1116 12.1265L12.8058 11.8207C12.1224 11.1372 11.0143 11.1372 10.3309 11.8207C9.64751 12.5041 9.64751 13.6121 10.3309 14.2955L10.6368 14.6014L9.36036 15.8778ZM11.6974 13.5407L12.051 13.1872L11.7451 12.8813C11.6475 12.7837 11.4892 12.7837 11.3916 12.8813C11.294 12.979 11.294 13.1372 11.3916 13.2349L11.6974 13.5407ZM18.8028 20.6462L16.7525 18.5959L17.1061 18.2424L19.1564 20.2927L18.8028 20.6462ZM26.2408 28.0842L21.8607 23.7042L22.2143 23.3506L26.5944 27.7307C26.692 27.8283 26.692 27.9866 26.5944 28.0842C26.4968 28.1819 26.3385 28.1819 26.2408 28.0842ZM10.421 17.875C10.1624 17.6164 10.1624 17.1971 10.421 16.9384L15.4141 11.9453C15.6728 11.6867 16.0921 11.6867 16.3507 11.9453L18.348 13.9426C18.6066 14.2012 18.6066 14.6205 18.348 14.8792L13.3549 19.8723C13.0962 20.1309 12.6769 20.1309 12.4183 19.8723L10.421 17.875ZM25.7918 12.4599C26.211 12.3503 26.6436 12.3206 27.0676 12.3688L25.2264 14.21V17.3002L28.3167 17.3002L30.142 15.4749C30.1855 15.8956 30.1524 16.324 30.0409 16.7387C29.8278 17.5313 29.3418 18.2234 28.6687 18.693C27.9955 19.1626 27.1782 19.3797 26.3607 19.306C25.4005 19.2195 24.1384 19.3052 23.2557 20.1878L14.9849 28.4587C14.7263 28.7173 14.3069 28.7173 14.0483 28.4587C13.7897 28.2 13.7897 27.7807 14.0483 27.5221L22.2979 19.2725C23.1921 18.3783 23.2797 17.0947 23.1989 16.122C23.1309 15.304 23.3537 14.4883 23.828 13.8184C24.3023 13.1485 24.9977 12.6674 25.7918 12.4599Z" fill="white"/>
</svg>
