<svg width="24" height="24" viewBox="0 0 24 24" fill="none" xmlns="http://www.w3.org/2000/svg">
<path fill-rule="evenodd" clip-rule="evenodd" d="M1.36036 7.87778C0.515946 8.7222 0.515946 10.0913 1.36036 10.9357L3.35761 12.9329C4.20203 13.7774 5.5711 13.7774 6.41552 12.9329L7.69187 11.6566L9.74217 13.7069L4.98765 18.4614C4.14323 19.3058 4.14324 20.6749 4.98765 21.5193C5.83207 22.3637 7.20114 22.3637 8.04556 21.5193L12.8001 16.7648L17.1802 21.1449C17.8636 21.8283 18.9716 21.8283 19.6551 21.1449C20.3385 20.4615 20.3385 19.3535 19.6551 18.67L15.275 14.2899L16.3164 13.2485C16.7114 12.8535 17.3868 12.7243 18.2261 12.8C19.3952 12.9053 20.5641 12.5949 21.5269 11.9232C22.4897 11.2516 23.1846 10.2618 23.4895 9.12818C23.7943 7.99454 23.6894 6.7897 23.1933 5.72578L22.7406 4.75503L19.6954 7.80024H18.7264V6.83129L21.7731 3.78458L20.8127 3.32854C19.7523 2.82501 18.5482 2.71172 17.4125 3.00862C16.2767 3.30552 15.2821 3.99356 14.6038 4.95163C13.9254 5.9097 13.6068 7.07637 13.704 8.24625C13.7756 9.1077 13.6444 9.80469 13.2372 10.2118L12.217 11.232L10.1667 9.18172L11.4086 7.93982C12.2531 7.0954 12.2531 5.72632 11.4086 4.88191L9.4114 2.88466C8.56698 2.04024 7.19791 2.04024 6.35349 2.88466L5.11164 4.1265L4.80581 3.82066C4.12239 3.13725 3.01435 3.13725 2.33093 3.82066C1.64751 4.50408 1.64751 5.61212 2.33093 6.29554L2.63677 6.60138L1.36036 7.87778ZM3.69743 5.54072L4.05098 5.18716L3.74515 4.88133C3.64751 4.78369 3.48922 4.78369 3.39159 4.88133C3.29396 4.97896 3.29396 5.13725 3.39159 5.23488L3.69743 5.54072ZM10.8028 12.6462L8.75253 10.5959L9.10608 10.2424L11.1564 12.2927L10.8028 12.6462ZM18.2408 20.0842L13.8607 15.7042L14.2143 15.3506L18.5944 19.7307C18.692 19.8283 18.692 19.9866 18.5944 20.0842C18.4968 20.1819 18.3385 20.1819 18.2408 20.0842ZM2.42102 9.87503C2.16239 9.6164 2.16239 9.19707 2.42102 8.93844L7.41415 3.94532C7.67278 3.68668 8.0921 3.68668 8.35074 3.94532L10.348 5.94257C10.6066 6.2012 10.6066 6.62052 10.348 6.87916L5.35486 11.8723C5.09623 12.1309 4.67691 12.1309 4.41827 11.8723L2.42102 9.87503ZM17.7918 4.45985C18.211 4.35027 18.6436 4.32061 19.0676 4.36881L17.2264 6.20997V9.30024L20.3167 9.30024L22.142 7.47492C22.1855 7.89564 22.1524 8.32398 22.0409 8.73869C21.8278 9.53134 21.3418 10.2234 20.6687 10.693C19.9955 11.1626 19.1782 11.3797 18.3607 11.306C17.4005 11.2195 16.1384 11.3052 15.2557 12.1878L6.9849 20.4587C6.72627 20.7173 6.30695 20.7173 6.04831 20.4587C5.78968 20.2 5.78968 19.7807 6.04831 19.5221L14.2979 11.2725C15.1921 10.3783 15.2797 9.09466 15.1989 8.12203C15.1309 7.30405 15.3537 6.48831 15.828 5.81842C16.3023 5.14853 16.9977 4.66744 17.7918 4.45985Z" fill="#121615"/>
</svg>
