<svg width="24" height="24" viewBox="0 0 24 24" fill="none" xmlns="http://www.w3.org/2000/svg">
<path fill-rule="evenodd" clip-rule="evenodd" d="M13.5857 2.03151C13.3269 1.70806 12.8549 1.65562 12.5315 1.91438C12.208 2.17313 12.1556 2.6451 12.4143 2.96855L13.4395 4.25003H12C10.777 4.25003 9.5713 4.53948 8.48157 5.09473C7.39185 5.64997 6.449 6.45524 5.73012 7.44469C5.01124 8.43414 4.53674 9.57969 4.34542 10.7877C4.15409 11.9956 4.25138 13.2317 4.62931 14.3949L6.0559 13.9314C5.75111 12.9933 5.67266 11.9965 5.82695 11.0223C5.98124 10.0481 6.3639 9.12432 6.94364 8.32637C7.52339 7.52842 8.28375 6.87901 9.16256 6.43124C10.0414 5.98346 11.0137 5.75003 12 5.75003H13.4395L12.4143 7.03151C12.1556 7.35495 12.208 7.82692 12.5315 8.08568C12.8549 8.34444 13.3269 8.292 13.5857 7.96855L15.5857 5.46855C15.8048 5.19463 15.8048 4.80542 15.5857 4.53151L13.5857 2.03151Z" fill="#121615"/>
<path fill-rule="evenodd" clip-rule="evenodd" d="M11.4685 22.0857C11.1451 22.3444 10.6731 22.292 10.4143 21.9685L8.41435 19.4685C8.19522 19.1946 8.19522 18.8054 8.41435 18.5315L10.4143 16.0315C10.6731 15.7081 11.1451 15.6556 11.4685 15.9144C11.792 16.1731 11.8444 16.6451 11.5857 16.9685L10.5605 18.25H12C12.9863 18.25 13.9586 18.0166 14.8374 17.5688C15.7163 17.121 16.4766 16.4716 17.0564 15.6737C17.6361 14.8757 18.0188 13.9519 18.1731 12.9777C18.3273 12.0036 18.2489 11.0067 17.9441 10.0687L19.3707 9.60514C19.7486 10.7683 19.8459 12.0044 19.6546 13.2124C19.4633 14.4204 18.9888 15.5659 18.2699 16.5554C17.551 17.5448 16.6082 18.3501 15.5184 18.9053C14.4287 19.4606 13.223 19.75 12 19.75H10.5605L11.5857 21.0315C11.8444 21.355 11.792 21.8269 11.4685 22.0857Z" fill="#121615"/>
</svg>
