<svg width="24" height="24" viewBox="0 0 24 24" fill="none" xmlns="http://www.w3.org/2000/svg">
<path fill-rule="evenodd" clip-rule="evenodd" d="M20.926 1L1.72223 4.38614L2.15054 6.81523H0V20.3152H12V18.8152H1.5V8.31523H18V11H19.5V6.81523H3.67368L3.45991 5.60288L19.7092 2.73768L21.1661 11H22.6892L20.926 1ZM12 13.5652C12 12.3226 10.9926 11.3152 9.75 11.3152C8.50736 11.3152 7.5 12.3226 7.5 13.5652C7.5 14.8079 8.50736 15.8152 9.75 15.8152C10.9926 15.8152 12 14.8079 12 13.5652ZM5.75 11.3152H2.75V9.81524H5.75V11.3152ZM9 13.5652C9 13.151 9.33579 12.8152 9.75 12.8152C10.1642 12.8152 10.5 13.151 10.5 13.5652C10.5 13.9794 10.1642 14.3152 9.75 14.3152C9.33579 14.3152 9 13.9794 9 13.5652Z" fill="#121615"/>
<path d="M21.6968 20.0532C21.2826 20.0532 20.9468 19.7174 20.9468 19.3032L20.9468 16.1139L16.2271 20.8335C15.9342 21.1264 15.4593 21.1264 15.1664 20.8335C14.8736 20.5406 14.8736 20.0658 15.1664 19.7729L19.8861 15.0532L16.6968 15.0532C16.2826 15.0532 15.9468 14.7174 15.9468 14.3032C15.9468 13.889 16.2826 13.5532 16.6968 13.5532H20.6968C21.6633 13.5532 22.4468 14.3367 22.4468 15.3032L22.4468 19.3032C22.4468 19.7174 22.111 20.0532 21.6968 20.0532Z" fill="#121615"/>
</svg>
