<svg width="40" height="40" viewBox="0 0 40 40" fill="none" xmlns="http://www.w3.org/2000/svg">
<rect width="40" height="40" rx="20" fill="#B0D11C"/>
<path fill-rule="evenodd" clip-rule="evenodd" d="M15.75 23C15.75 21.7574 16.7574 20.75 18 20.75C19.2426 20.75 20.25 21.7574 20.25 23C20.25 24.2427 19.2426 25.25 18 25.25C16.7574 25.25 15.75 24.2427 15.75 23ZM18 22.25C17.5858 22.25 17.25 22.5858 17.25 23C17.25 23.4143 17.5858 23.75 18 23.75C18.4142 23.75 18.75 23.4143 18.75 23C18.75 22.5858 18.4142 22.25 18 22.25Z" fill="white"/>
<path d="M22 26.75H25V25.25H22V26.75Z" fill="white"/>
<path d="M14 20.75H11V19.25H14V20.75Z" fill="white"/>
<path fill-rule="evenodd" clip-rule="evenodd" d="M9.97223 13.821L29.176 10.4348L31.5202 23.7297L27.75 24.3945V29.75H8.25V16.25H10.4005L9.97223 13.821ZM11.9237 16.25H27.75V22.8714L29.7825 22.513L27.9592 12.1725L11.7099 15.0377L11.9237 16.25ZM9.75 17.75V28.25H26.25V17.75H9.75Z" fill="white"/>
</svg>
