<svg width="24" height="24" viewBox="0 0 24 24" fill="none" xmlns="http://www.w3.org/2000/svg">
<path d="M11.25 15L11.25 4.81066L8.53033 7.53033C8.23744 7.82322 7.76256 7.82322 7.46967 7.53033C7.17678 7.23744 7.17678 6.76256 7.46967 6.46967L11.4697 2.46967C11.5416 2.39776 11.6245 2.34351 11.7129 2.30691C11.8013 2.27024 11.8983 2.25 12 2.25C12.1017 2.25 12.1987 2.27024 12.2871 2.30691C12.3735 2.34268 12.4547 2.39531 12.5254 2.4648L12.531 2.47034L16.5303 6.46967C16.8232 6.76256 16.8232 7.23744 16.5303 7.53033C16.2374 7.82322 15.7626 7.82322 15.4697 7.53033L12.75 4.81066L12.75 15C12.75 15.4142 12.4142 15.75 12 15.75C11.5858 15.75 11.25 15.4142 11.25 15Z" fill="#121615"/>
<path d="M3.75 15.5C3.75 15.0858 3.41421 14.75 3 14.75C2.58579 14.75 2.25 15.0858 2.25 15.5V17C2.25 17.9761 2.60735 18.923 3.25999 19.63C3.91448 20.3391 4.81562 20.75 5.76923 20.75H18.2308C19.1844 20.75 20.0855 20.3391 20.74 19.63C21.3926 18.923 21.75 17.9761 21.75 17V15.5C21.75 15.0858 21.4142 14.75 21 14.75C20.5858 14.75 20.25 15.0858 20.25 15.5V17C20.25 17.6152 20.0238 18.1944 19.6378 18.6126C19.2536 19.0288 18.746 19.25 18.2308 19.25H5.76923C5.25395 19.25 4.74636 19.0288 4.36219 18.6126C3.97616 18.1944 3.75 17.6152 3.75 17V15.5Z" fill="#121615"/>
</svg>
