<svg width="24" height="24" viewBox="0 0 24 24" fill="none" xmlns="http://www.w3.org/2000/svg">
<path d="M18.1891 12.75H5C4.58579 12.75 4.25 12.4142 4.25 12C4.25 11.5858 4.58579 11.25 5 11.25H18.1891C18.1471 11.2078 18.1025 11.1632 18.0555 11.1161L13.4697 6.53033C13.1768 6.23744 13.1768 5.76256 13.4697 5.46967C13.7626 5.17678 14.2374 5.17678 14.5303 5.46967L19.1478 10.0871C19.4538 10.3931 19.7345 10.6737 19.9321 10.9326C20.1496 11.2178 20.3358 11.563 20.3358 12C20.3358 12.437 20.1496 12.7822 19.9321 13.0674C19.7345 13.3263 19.4539 13.6069 19.1478 13.9129L14.5303 18.5303C14.2374 18.8232 13.7626 18.8232 13.4697 18.5303C13.1768 18.2374 13.1768 17.7626 13.4697 17.4697L18.0555 12.8839C18.1025 12.8368 18.1471 12.7922 18.1891 12.75Z" fill="#121615"/>
</svg>
