<svg width="24" height="24" viewBox="0 0 24 24" fill="none" xmlns="http://www.w3.org/2000/svg">
<path d="M10.75 8.25H11.25V6.5H12.75V8.25H13.1615C13.9595 8.25 14.689 8.70085 15.0458 9.41459C15.2311 9.78507 15.0809 10.2356 14.7104 10.4208C14.3399 10.6061 13.8894 10.4559 13.7042 10.0854C13.6014 9.87985 13.3913 9.75 13.1615 9.75H10.75C10.3358 9.75 10 10.0858 10 10.5C10 10.9142 10.3358 11.25 10.75 11.25H13.25C14.4926 11.25 15.5 12.2574 15.5 13.5C15.5 14.7426 14.4926 15.75 13.25 15.75H12.75V17.5H11.25V15.75H10.6213C10.0246 15.75 9.45229 15.5129 9.03033 15.091L8.71967 14.7803C8.42678 14.4874 8.42678 14.0126 8.71967 13.7197C9.01256 13.4268 9.48744 13.4268 9.78033 13.7197L10.091 14.0303C10.2316 14.171 10.4224 14.25 10.6213 14.25H13.25C13.6642 14.25 14 13.9142 14 13.5C14 13.0858 13.6642 12.75 13.25 12.75H10.75C9.50736 12.75 8.5 11.7426 8.5 10.5C8.5 9.25736 9.50736 8.25 10.75 8.25Z" fill="#121615"/>
<path fill-rule="evenodd" clip-rule="evenodd" d="M12 0C12.4142 0 12.75 0.335786 12.75 0.75V1.27576C15.1544 1.44146 17.3413 2.3978 19.0527 3.88668L19.9697 2.96967C19.9796 2.95976 19.9897 2.95019 20 2.94095V2.1285C20 1.86328 20.1054 1.60893 20.2929 1.42139L21.7143 0V1.28571C21.7143 1.838 22.162 2.28571 22.7143 2.28571H24L22.5786 3.70711C22.3911 3.89464 22.1367 4 21.8715 4H21.059C21.0498 4.01031 21.0402 4.02042 21.0303 4.03033L20.1133 4.94734C21.6022 6.65868 22.5585 8.8456 22.7242 11.25H23.25C23.6642 11.25 24 11.5858 24 12C24 12.4142 23.6642 12.75 23.25 12.75H22.7242C22.3563 18.0894 18.0894 22.3563 12.75 22.7242V23.25C12.75 23.6642 12.4142 24 12 24C11.5858 24 11.25 23.6642 11.25 23.25V22.7242C5.91063 22.3563 1.64372 18.0894 1.27576 12.75H0.75C0.335786 12.75 0 12.4142 0 12C0 11.5858 0.335786 11.25 0.75 11.25H1.27576C1.64372 5.91063 5.91063 1.64372 11.25 1.27576V0.75C11.25 0.335786 11.5858 0 12 0ZM19.0497 6.011C20.2703 7.44638 21.0603 9.25928 21.22 11.25H19.7136C19.5647 9.71809 18.9626 8.26448 17.9847 7.07597L19.0497 6.011ZM21.22 12.75H19.7136C19.5406 14.5301 18.7556 16.2045 17.4801 17.4801C17.1872 17.773 16.7123 17.773 16.4194 17.4801C16.1265 17.1872 16.1265 16.7123 16.4194 16.4194C17.5915 15.2473 18.25 13.6576 18.25 12C18.25 10.3424 17.5915 8.75268 16.4194 7.58058C16.1265 7.28769 16.1265 6.81282 16.4194 6.51992C16.4279 6.51146 16.4365 6.50325 16.4452 6.49528C16.4531 6.4866 16.4613 6.47806 16.4697 6.46967L17.989 4.95034C16.5536 3.72972 14.7407 2.9397 12.75 2.77997V5.25H11.25V2.77997C6.7395 3.14188 3.14188 6.7395 2.77997 11.25H4.28634C4.45936 9.46988 5.24436 7.79547 6.51991 6.51992C6.81281 6.22703 7.28768 6.22703 7.58057 6.51992C7.87347 6.81282 7.87347 7.28769 7.58057 7.58058C6.40847 8.75268 5.74999 10.3424 5.74999 12C5.74999 13.6576 6.40847 15.2473 7.58057 16.4194C7.87346 16.7123 7.87346 17.1872 7.58057 17.4801C7.28768 17.773 6.8128 17.773 6.51991 17.4801C5.24436 16.2045 4.45936 14.5301 4.28634 12.75H2.77997C3.14188 17.2605 6.7395 20.8581 11.25 21.22V18.75H12.75V21.22C17.2605 20.8581 20.8581 17.2605 21.22 12.75Z" fill="#121615"/>
</svg>
