<svg width="24" height="24" viewBox="0 0 24 24" fill="none" xmlns="http://www.w3.org/2000/svg">
<path fill-rule="evenodd" clip-rule="evenodd" d="M21.7143 1.28571V0L20.2929 1.42139C20.1054 1.60893 20 1.86328 20 2.1285V2.93934L11.4697 11.4697C11.1768 11.7626 11.1768 12.2374 11.4697 12.5303C11.7626 12.8232 12.2374 12.8232 12.5303 12.5303L14.7664 10.2943C15.0487 10.7521 15.215 11.2763 15.2451 11.8212C15.2891 12.6201 15.0369 13.4071 14.5367 14.0317C14.0365 14.6562 13.3236 15.0742 12.5343 15.2058C11.7451 15.3373 10.9351 15.1731 10.2594 14.7446C9.5837 14.3161 9.08983 13.6534 8.87236 12.8834C8.65488 12.1134 8.72908 11.2902 9.08076 10.5715C9.43243 9.85284 10.0369 9.28914 10.7783 8.98837C11.5197 8.68759 12.3461 8.6709 13.099 8.94147L13.6063 7.52984C13.3265 7.42931 13.0398 7.35591 12.75 7.30957V5.79514C13.2777 5.85891 13.799 5.9902 14.3009 6.1889L14.853 4.79423C14.1738 4.52528 13.4657 4.35592 12.75 4.28636V2.78045C13.7555 2.86224 14.7493 3.10862 15.6901 3.5179L16.2884 2.14243C15.1572 1.65028 13.9601 1.36081 12.75 1.27619V1C12.75 0.585786 12.4142 0.25 12 0.25C11.5858 0.25 11.25 0.585786 11.25 1V1.27618C10.3323 1.34034 9.41965 1.52253 8.53514 1.82369C6.00115 2.68647 3.88022 4.46361 2.58724 6.80746C1.82629 8.18688 1.38433 9.70417 1.27619 11.25H1C0.585786 11.25 0.25 11.5858 0.25 12C0.25 12.4142 0.585786 12.75 1 12.75H1.27616C1.31709 13.3352 1.4061 13.9194 1.54399 14.4969C2.16573 17.1005 3.73649 19.3785 5.94899 20.8853C7.53312 21.9641 9.36463 22.5919 11.25 22.7238V23C11.25 23.4142 11.5858 23.75 12 23.75C12.4142 23.75 12.75 23.4142 12.75 23V22.7238C13.0024 22.7062 13.2549 22.6795 13.507 22.6439C16.1574 22.2686 18.5724 20.918 20.2797 18.8563C21.7189 17.1183 22.5679 14.9803 22.7238 12.75H23C23.4142 12.75 23.75 12.4142 23.75 12C23.75 11.5858 23.4142 11.25 23 11.25H22.7238C22.5607 8.91713 21.6416 6.70553 20.1132 4.94744L21.0607 4H21.8715C22.1367 4 22.3911 3.89464 22.5786 3.70711L24 2.28571H22.7143C22.162 2.28571 21.7143 1.838 21.7143 1.28571ZM11.25 7.30958V5.79516C10.7627 5.85406 10.2805 5.97059 9.81384 6.14485C8.36428 6.68609 7.16702 7.7458 6.45375 9.11891C6.10529 9.78973 5.88444 10.512 5.79524 11.25H7.30958C7.38325 10.7892 7.52499 10.3382 7.73342 9.91223C8.2474 8.86184 9.1308 8.03797 10.2144 7.59838C10.55 7.46225 10.8975 7.36593 11.25 7.30958ZM7.30957 12.75H5.79523C5.82881 13.0278 5.8812 13.3045 5.95259 13.5781C6.34327 15.0753 7.27543 16.3743 8.56869 17.2238C9.38121 17.7575 10.3 18.09 11.25 18.2048V16.6904C10.6172 16.5892 10.0062 16.3602 9.45604 16.0113C8.46849 15.385 7.74668 14.4165 7.42883 13.2911C7.37835 13.1124 7.33863 12.9317 7.30957 12.75ZM12.75 16.6904V18.2048C12.8179 18.1966 12.8858 18.1873 12.9535 18.1768C14.4827 17.9408 15.87 17.1459 16.8469 15.946C17.5969 15.0247 18.0641 13.915 18.2049 12.75H16.6904C16.5614 13.5568 16.2254 14.3227 15.7075 14.9693C14.9765 15.8821 13.9344 16.4931 12.781 16.6854C12.7706 16.6871 12.7603 16.6888 12.75 16.6904ZM16.6904 11.25H18.2049C18.0677 10.1143 17.6214 9.03978 16.9179 8.14279L15.847 9.2137C16.2831 9.81591 16.5727 10.5134 16.6904 11.25ZM11.25 4.28637V2.78044C10.4956 2.84179 9.74607 2.99596 9.01861 3.24364C6.8382 3.98603 5.01322 5.5152 3.90065 7.532C3.26306 8.6878 2.88573 9.95608 2.78045 11.25H4.28646C4.3815 10.2725 4.66224 9.31373 5.12263 8.42745C6.00708 6.7248 7.49168 5.41076 9.28914 4.73961C9.92525 4.50209 10.5845 4.35107 11.25 4.28637ZM4.28643 12.75H2.78043C2.81854 13.2185 2.89254 13.686 3.00297 14.1485C3.53796 16.3888 4.88954 18.3489 6.79332 19.6455C8.12708 20.5538 9.66463 21.0906 11.25 21.2196V19.7136C10.0082 19.5928 8.80392 19.173 7.74515 18.4775C6.14152 17.4241 4.98564 15.8133 4.50119 13.9568C4.39725 13.5585 4.32581 13.155 4.28643 12.75ZM12.75 19.7136V21.2196C12.9323 21.2047 13.1146 21.1844 13.2967 21.1587C15.5773 20.8358 17.6553 19.6737 19.1244 17.8996C20.3403 16.4313 21.0666 14.6313 21.2196 12.75H19.7137C19.5669 14.2602 18.9787 15.7033 18.0102 16.893C16.7988 18.3809 15.0786 19.3666 13.1824 19.6593C13.0384 19.6815 12.8943 19.6996 12.75 19.7136ZM19.7137 11.25H21.2195C21.0623 9.3162 20.3011 7.48423 19.0495 6.01112L17.9847 7.07592C18.9609 8.26225 19.5645 9.71505 19.7137 11.25Z" fill="#070A15"/>
</svg>
