<svg width="24" height="24" viewBox="0 0 24 24" fill="none" xmlns="http://www.w3.org/2000/svg">
<path d="M12.75 2.5C12.75 2.08579 12.4142 1.75 12 1.75C11.5858 1.75 11.25 2.08579 11.25 2.5V3.75933C8.38033 3.83003 5.46665 4.30556 1.82634 5.17031C1.42335 5.26604 1.17426 5.67034 1.26999 6.07334C1.36572 6.47634 1.77002 6.72543 2.17302 6.62969C6.07262 5.70335 9.04531 5.25011 11.9997 5.25008C14.9541 5.25005 17.9267 5.70324 21.8263 6.62969C22.2293 6.72543 22.6336 6.47635 22.7294 6.07336C22.8251 5.67036 22.576 5.26605 22.173 5.17031C18.533 4.30552 15.6195 3.83004 12.75 3.75933V2.5Z" fill="#121615"/>
<path d="M4.9197 7.75431C5.33153 7.70996 5.70134 8.00786 5.74569 8.41969L6.95337 19.6338C7.02174 20.2687 7.55763 20.75 8.19618 20.75H15.8038C16.4424 20.75 16.9783 20.2687 17.0466 19.6338L18.2543 8.41969C18.2987 8.00786 18.6685 7.70996 19.0803 7.75431C19.4921 7.79866 19.79 8.16847 19.7457 8.58031L18.538 19.7945C18.3876 21.1912 17.2086 22.25 15.8038 22.25H8.19618C6.79137 22.25 5.61241 21.1912 5.46199 19.7945L4.25431 8.58031C4.20996 8.16847 4.50786 7.79866 4.9197 7.75431Z" fill="#121615"/>
</svg>
