<svg width="24" height="24" viewBox="0 0 24 24" fill="none" xmlns="http://www.w3.org/2000/svg">
<path d="M16.5892 10.464C16.8455 10.1386 16.7894 9.66704 16.464 9.41077C16.1386 9.1545 15.667 9.21056 15.4108 9.53598L12.0395 13.817C11.9593 13.9187 11.8148 13.9425 11.7064 13.8717L9.41009 12.372C9.06328 12.1456 8.59853 12.2431 8.37205 12.5899C8.14556 12.9367 8.2431 13.4015 8.58991 13.628L10.8862 15.1276C11.6452 15.6232 12.6571 15.4572 13.2179 14.745L16.5892 10.464Z" fill="#121615"/>
<path fill-rule="evenodd" clip-rule="evenodd" d="M12.2496 1.29276C12.0881 1.23575 11.9119 1.23575 11.7504 1.29276L3.25038 4.29276C2.95053 4.39859 2.75 4.68201 2.75 5V11.9248C2.75 16.4827 5.6242 20.5451 9.92218 22.062L11.7504 22.7072C11.9119 22.7643 12.0881 22.7643 12.2496 22.7072L14.0778 22.062C18.3758 20.5451 21.25 16.4827 21.25 11.9248V5C21.25 4.68201 21.0495 4.39859 20.7496 4.29276L12.2496 1.29276ZM4.25 11.9248V5.53064L12 2.79534L19.75 5.53064V11.9248C19.75 15.8467 17.2768 19.3422 13.5786 20.6475L12 21.2047L10.4214 20.6475C6.72315 19.3422 4.25 15.8467 4.25 11.9248Z" fill="#121615"/>
</svg>
