<svg width="24" height="24" viewBox="0 0 24 24" fill="none" xmlns="http://www.w3.org/2000/svg">
<path fill-rule="evenodd" clip-rule="evenodd" d="M15.75 9C15.75 9.26795 15.6071 9.51554 15.375 9.64952L10.875 12.2476C10.6429 12.3816 10.3571 12.3816 10.125 12.2476C9.89295 12.1136 9.75 11.866 9.75 11.5981V6.40192C9.75 6.13397 9.89295 5.88638 10.125 5.7524C10.3571 5.61843 10.643 5.61843 10.875 5.7524L15.375 8.35048C15.6071 8.48446 15.75 8.73205 15.75 9ZM13.5 9L11.25 7.70096V10.299L13.5 9Z" fill="black"/>
<path fill-rule="evenodd" clip-rule="evenodd" d="M1 4C1 2.89543 1.89543 2 3 2H21C22.1046 2 23 2.89543 23 4V14C23 15.1046 22.1046 16 21 16H3C1.89543 16 1 15.1046 1 14V4ZM3 3.5H21C21.2761 3.5 21.5 3.72386 21.5 4V14C21.5 14.2761 21.2761 14.5 21 14.5H3C2.72386 14.5 2.5 14.2761 2.5 14V4C2.5 3.72386 2.72386 3.5 3 3.5Z" fill="black"/>
<path fill-rule="evenodd" clip-rule="evenodd" d="M9.64648 20.75C9.32002 21.9043 8.25878 22.75 7 22.75C5.74122 22.75 4.67998 21.9043 4.35352 20.75H1V19.25H4.35352C4.67998 18.0957 5.74122 17.25 7 17.25C8.25878 17.25 9.32002 18.0957 9.64648 19.25H23V20.75H9.64648ZM5.75 20C5.75 19.3096 6.30964 18.75 7 18.75C7.69036 18.75 8.25 19.3096 8.25 20C8.25 20.6904 7.69036 21.25 7 21.25C6.30964 21.25 5.75 20.6904 5.75 20Z" fill="black"/>
</svg>
