<svg width="48" height="48" viewBox="0 0 48 48" fill="none" xmlns="http://www.w3.org/2000/svg">
<circle cx="24" cy="24" r="24" fill="#D5F2E9"/>
<path d="M32.4349 27.1304C33.5395 27.1304 34.4542 28.0338 34.2438 29.1182C34.1108 29.8035 33.909 30.4755 33.6406 31.1236C33.1162 32.3896 32.3476 33.5399 31.3786 34.5089C30.4096 35.4778 29.2593 36.2465 27.9933 36.7709C26.7273 37.2953 25.3704 37.5652 24.0001 37.5652C22.6298 37.5652 21.2729 37.2953 20.0069 36.7709C18.7409 36.2465 17.5906 35.4778 16.6216 34.5089C15.6526 33.5399 14.884 32.3896 14.3596 31.1236C14.0912 30.4755 13.8894 29.8035 13.7564 29.1182C13.546 28.0338 14.4607 27.1304 15.5653 27.1304L32.4349 27.1304Z" fill="#778A89"/>
<path fill-rule="evenodd" clip-rule="evenodd" d="M19.8698 19.2608C19.3175 19.2608 18.8698 18.8131 18.8698 18.2608C18.8698 17.9068 18.8001 17.5563 18.6646 17.2293C18.5292 16.9022 18.3306 16.605 18.0803 16.3547C17.83 16.1044 17.5328 15.9058 17.2058 15.7704C16.8787 15.6349 16.5282 15.5652 16.1742 15.5652C15.8202 15.5652 15.4696 15.6349 15.1426 15.7704C14.8155 15.9058 14.5184 16.1044 14.2681 16.3547C14.0177 16.605 13.8192 16.9022 13.6837 17.2293C13.5482 17.5563 13.4785 17.9068 13.4785 18.2608C13.4785 18.8131 13.0308 19.2608 12.4785 19.2608C11.9262 19.2608 11.4785 18.8131 11.4785 18.2608C11.4785 17.6442 11.6 17.0336 11.836 16.4639C12.0719 15.8942 12.4178 15.3765 12.8538 14.9405C13.2899 14.5045 13.8075 14.1586 14.3772 13.9226C14.9469 13.6866 15.5575 13.5652 16.1742 13.5652C16.7908 13.5652 17.4014 13.6866 17.9711 13.9226C18.5408 14.1586 19.0585 14.5045 19.4945 14.9405C19.9305 15.3765 20.2764 15.8942 20.5124 16.4639C20.7484 17.0336 20.8698 17.6442 20.8698 18.2608C20.8698 18.8131 20.4221 19.2608 19.8698 19.2608Z" fill="#778A89"/>
<path fill-rule="evenodd" clip-rule="evenodd" d="M35.5221 19.2608C34.9698 19.2608 34.5221 18.8131 34.5221 18.2608C34.5221 17.9068 34.4524 17.5563 34.3169 17.2293C34.1814 16.9022 33.9829 16.605 33.7326 16.3547C33.4823 16.1044 33.1851 15.9058 32.858 15.7704C32.531 15.6349 32.1804 15.5652 31.8265 15.5652C31.4725 15.5652 31.1219 15.6349 30.7949 15.7704C30.4678 15.9058 30.1707 16.1044 29.9203 16.3547C29.67 16.605 29.4715 16.9022 29.336 17.2293C29.2005 17.5563 29.1308 17.9068 29.1308 18.2608C29.1308 18.8131 28.6831 19.2608 28.1308 19.2608C27.5785 19.2608 27.1308 18.8131 27.1308 18.2608C27.1308 17.6442 27.2523 17.0336 27.4882 16.4639C27.7242 15.8942 28.0701 15.3765 28.5061 14.9405C28.9422 14.5045 29.4598 14.1586 30.0295 13.9226C30.5992 13.6866 31.2098 13.5652 31.8265 13.5652C32.4431 13.5652 33.0537 13.6866 33.6234 13.9226C34.1931 14.1586 34.7107 14.5045 35.1468 14.9405C35.5828 15.3765 35.9287 15.8942 36.1647 16.4639C36.4006 17.0336 36.5221 17.6442 36.5221 18.2608C36.5221 18.8131 36.0744 19.2608 35.5221 19.2608Z" fill="#778A89"/>
<path fill-rule="evenodd" clip-rule="evenodd" d="M19.8698 19.2608C19.3175 19.2608 18.8698 18.8131 18.8698 18.2608C18.8698 17.9068 18.8001 17.5563 18.6646 17.2293C18.5292 16.9022 18.3306 16.605 18.0803 16.3547C17.83 16.1044 17.5328 15.9058 17.2058 15.7704C16.8787 15.6349 16.5282 15.5652 16.1742 15.5652C15.8202 15.5652 15.4696 15.6349 15.1426 15.7704C14.8155 15.9058 14.5184 16.1044 14.2681 16.3547C14.0177 16.605 13.8192 16.9022 13.6837 17.2293C13.5482 17.5563 13.4785 17.9068 13.4785 18.2608C13.4785 18.8131 13.0308 19.2608 12.4785 19.2608C11.9262 19.2608 11.4785 18.8131 11.4785 18.2608C11.4785 17.6442 11.6 17.0336 11.836 16.4639C12.0719 15.8942 12.4178 15.3765 12.8538 14.9405C13.2899 14.5045 13.8075 14.1586 14.3772 13.9226C14.9469 13.6866 15.5575 13.5652 16.1742 13.5652C16.7908 13.5652 17.4014 13.6866 17.9711 13.9226C18.5408 14.1586 19.0585 14.5045 19.4945 14.9405C19.9305 15.3765 20.2764 15.8942 20.5124 16.4639C20.7484 17.0336 20.8698 17.6442 20.8698 18.2608C20.8698 18.8131 20.4221 19.2608 19.8698 19.2608Z" stroke="#778A89" stroke-linecap="round" stroke-linejoin="round"/>
<path fill-rule="evenodd" clip-rule="evenodd" d="M35.5221 19.2608C34.9698 19.2608 34.5221 18.8131 34.5221 18.2608C34.5221 17.9068 34.4524 17.5563 34.3169 17.2293C34.1814 16.9022 33.9829 16.605 33.7326 16.3547C33.4823 16.1044 33.1851 15.9058 32.858 15.7704C32.531 15.6349 32.1804 15.5652 31.8265 15.5652C31.4725 15.5652 31.1219 15.6349 30.7949 15.7704C30.4678 15.9058 30.1707 16.1044 29.9203 16.3547C29.67 16.605 29.4715 16.9022 29.336 17.2293C29.2005 17.5563 29.1308 17.9068 29.1308 18.2608C29.1308 18.8131 28.6831 19.2608 28.1308 19.2608C27.5785 19.2608 27.1308 18.8131 27.1308 18.2608C27.1308 17.6442 27.2523 17.0336 27.4882 16.4639C27.7242 15.8942 28.0701 15.3765 28.5061 14.9405C28.9422 14.5045 29.4598 14.1586 30.0295 13.9226C30.5992 13.6866 31.2098 13.5652 31.8265 13.5652C32.4431 13.5652 33.0537 13.6866 33.6234 13.9226C34.1931 14.1586 34.7107 14.5045 35.1468 14.9405C35.5828 15.3765 35.9287 15.8942 36.1647 16.4639C36.4006 17.0336 36.5221 17.6442 36.5221 18.2608C36.5221 18.8131 36.0744 19.2608 35.5221 19.2608Z" stroke="#778A89" stroke-linecap="round" stroke-linejoin="round"/>
</svg>
