<svg width="24" height="24" viewBox="0 0 24 24" fill="none" xmlns="http://www.w3.org/2000/svg">
<path d="M7.75 8C7.75 6.75736 8.75736 5.75 10 5.75H14C15.2426 5.75 16.25 6.75736 16.25 8V9.30911C16.25 10.1627 15.767 10.9428 15.0029 11.3232L13.3285 12.1569C12.055 12.791 11.25 14.0912 11.25 15.5138V16.5H12.75V15.5138C12.75 14.6602 13.233 13.8801 13.9971 13.4997L15.6715 12.666C16.945 12.0319 17.75 10.7318 17.75 9.30911V8C17.75 5.92893 16.0711 4.25 14 4.25H10C7.92893 4.25 6.25 5.92893 6.25 8V9.83333H7.75V8Z" fill="black"/>
<path d="M11.25 18V20H12.75V18H11.25Z" fill="black"/>
</svg>
