<svg width="40" height="40" viewBox="0 0 40 40" fill="none" xmlns="http://www.w3.org/2000/svg">
<rect width="40" height="40" rx="20" fill="#5FC3D8"/>
<path fill-rule="evenodd" clip-rule="evenodd" d="M24.4442 9.66213L25.0152 8.28259C26.0012 8.58325 27.5318 9.15645 28.8284 10.1902C30.1428 11.2382 31.2495 12.7914 31.2495 15C31.2495 15.9912 30.942 17.1582 30.2245 18.0951C29.4872 19.058 28.3341 19.75 26.7499 19.75C24.8548 19.75 23.37 18.822 22.6722 17.4417C21.974 16.0606 22.1216 14.3376 23.2548 12.8862L23.6406 12.3922L24.1953 12.6841C24.9011 13.0556 25.4024 13.063 25.7006 12.9703C25.985 12.882 26.1799 12.6765 26.2648 12.3788C26.4358 11.7791 26.1486 10.5687 24.4442 9.66213ZM27.7004 11.2149C27.8466 11.7507 27.8503 12.2888 27.7073 12.7902C27.4923 13.544 26.9432 14.155 26.1456 14.4028C25.5351 14.5925 24.8427 14.5515 24.1192 14.2887C23.6332 15.1702 23.6581 16.067 24.0109 16.765C24.1416 17.0236 24.323 17.2658 24.553 17.4765C24.8632 16.8813 25.3908 16.3506 26.084 16.0587C27.0446 15.6543 28.2077 15.7475 29.4229 16.5223C29.6439 16.0257 29.7495 15.4851 29.7495 15C29.7495 13.3667 28.9552 12.2098 27.8933 11.3631C27.8298 11.3125 27.7655 11.2631 27.7004 11.2149ZM26.7499 18.25C26.4404 18.25 26.1535 18.2172 25.8898 18.157C26.0436 17.8688 26.3094 17.5913 26.666 17.4412C27.064 17.2736 27.6794 17.2275 28.4997 17.7143C28.0632 18.0401 27.4923 18.25 26.7499 18.25Z" fill="white"/>
<path d="M14.15 8.54996L15.35 9.44996L12.5 13.25H18.5L13.85 19.45L12.65 18.55L15.5 14.75H9.5L14.15 8.54996Z" fill="white"/>
<path d="M14 22L14.5009 21.4417L13.9692 20.9646L13.4668 21.4725L14 22Z" fill="white"/>
<path fill-rule="evenodd" clip-rule="evenodd" d="M17.75 26.8C17.75 26.1057 17.5068 25.4197 17.1987 24.8185C16.8866 24.2095 16.479 23.632 16.0854 23.1406C15.69 22.6469 15.2966 22.225 15.0029 21.927C14.8555 21.7775 14.7322 21.6582 14.6447 21.5753C14.601 21.5339 14.5662 21.5015 14.5417 21.479L14.513 21.4527L14.5048 21.4452L14.5023 21.443L14.5009 21.4417C14.5008 21.4416 14.5009 21.4417 14 22C13.4668 21.4725 13.4669 21.4724 13.4668 21.4725L13.4657 21.4737L13.4634 21.4759L13.4557 21.4838L13.4281 21.5122C13.4043 21.5366 13.3702 21.572 13.3273 21.6172C13.2414 21.7077 13.1197 21.8378 12.9742 21.9992C12.684 22.3211 12.2952 22.7712 11.9046 23.2811C11.516 23.7884 11.1138 24.3702 10.8055 24.9543C10.5068 25.5202 10.25 26.1729 10.25 26.8C10.25 28.9352 11.8841 30.75 14 30.75C16.1159 30.75 17.75 28.9352 17.75 26.8ZM13.0954 24.1933C13.4279 23.7592 13.762 23.3685 14.0258 23.0733C14.2813 23.337 14.5987 23.6839 14.9146 24.0782C15.271 24.5233 15.6134 25.0141 15.8638 25.5026C16.1182 25.9992 16.25 26.4402 16.25 26.8C16.25 28.1994 15.1978 29.25 14 29.25C12.8022 29.25 11.75 28.1994 11.75 26.8C11.75 26.5433 11.8682 26.1542 12.132 25.6545C12.3862 25.1729 12.734 24.6651 13.0954 24.1933Z" fill="white"/>
<path d="M21 26.25C21.6238 26.25 22.2414 26.3728 22.8177 26.6116C23.394 26.8503 23.9177 27.2001 24.3588 27.6412C24.7998 28.0823 25.1497 28.6059 25.3884 29.1822C25.6271 29.7585 25.75 30.3762 25.75 31H24.25C24.25 30.5732 24.1659 30.1506 24.0026 29.7563C23.8393 29.3619 23.5999 29.0037 23.2981 28.7019C22.9963 28.4001 22.638 28.1607 22.2437 27.9974C21.8494 27.834 21.4268 27.75 21 27.75V26.25Z" fill="white"/>
<path d="M25.1138 21.0683C23.8096 20.528 22.4117 20.25 21 20.25V21.75C22.2147 21.75 23.4176 21.9892 24.5398 22.4541C25.6621 22.9189 26.6818 23.6003 27.5407 24.4592C28.3997 25.3182 29.081 26.3379 29.5459 27.4602C30.0107 28.5824 30.25 29.7853 30.25 31H31.75C31.75 29.5883 31.4719 28.1904 30.9317 26.8861C30.3915 25.5819 29.5996 24.3968 28.6014 23.3986C27.6032 22.4004 26.4181 21.6085 25.1138 21.0683Z" fill="white"/>
<path d="M23.9658 23.8399C23.0255 23.4504 22.0177 23.25 21 23.25V24.75C21.8208 24.75 22.6335 24.9116 23.3918 25.2257C24.1501 25.5398 24.8391 26.0002 25.4194 26.5806C25.9998 27.1609 26.4602 27.8499 26.7742 28.6082C27.0883 29.3665 27.25 30.1792 27.25 31H28.75C28.75 29.9822 28.5495 28.9745 28.1601 28.0342C27.7706 27.0939 27.1997 26.2396 26.4801 25.5199C25.7604 24.8002 24.9061 24.2294 23.9658 23.8399Z" fill="white"/>
</svg>
