<svg width="24" height="24" viewBox="0 0 24 24" fill="none" xmlns="http://www.w3.org/2000/svg">
<path fill-rule="evenodd" clip-rule="evenodd" d="M16.4442 1.66213L17.0152 0.282593C18.0012 0.583252 19.5318 1.15645 20.8284 2.19025C22.1428 3.2382 23.2495 4.7914 23.2495 6.99998C23.2495 7.99122 22.942 9.15817 22.2245 10.0951C21.4872 11.058 20.3341 11.75 18.7499 11.75C16.8548 11.75 15.37 10.822 14.6722 9.44173C13.974 8.06057 14.1216 6.33759 15.2548 4.88624L15.6406 4.39216L16.1953 4.68412C16.9011 5.0556 17.4024 5.06298 17.7006 4.97033C17.985 4.88197 18.1799 4.67648 18.2648 4.37881C18.4358 3.77907 18.1486 2.56872 16.4442 1.66213ZM19.7004 3.21485C19.8466 3.75075 19.8503 4.2888 19.7073 4.79017C19.4923 5.54404 18.9432 6.15499 18.1456 6.40279C17.5351 6.59246 16.8427 6.55145 16.1192 6.2887C15.6332 7.17024 15.6581 8.067 16.0109 8.76502C16.1416 9.0236 16.323 9.26579 16.553 9.47651C16.8632 8.88134 17.3908 8.35056 18.084 8.05871C19.0446 7.65426 20.2077 7.74747 21.4229 8.52234C21.6439 8.02571 21.7495 7.4851 21.7495 6.99998C21.7495 5.36669 20.9552 4.20975 19.8933 3.36309C19.8298 3.31246 19.7655 3.26306 19.7004 3.21485ZM18.7499 10.25C18.4404 10.25 18.1535 10.2172 17.8898 10.157C18.0436 9.86882 18.3094 9.59132 18.666 9.44117C19.064 9.27362 19.6794 9.2275 20.4997 9.7143C20.0632 10.0401 19.4923 10.25 18.7499 10.25Z" fill="black"/>
<path d="M6.15 0.549958L7.35 1.44996L4.5 5.24996H10.5L5.85 11.45L4.65 10.55L7.5 6.74996H1.5L6.15 0.549958Z" fill="black"/>
<path d="M6 14L6.50089 13.4417L5.96919 12.9646L5.4668 13.4725L6 14Z" fill="black"/>
<path fill-rule="evenodd" clip-rule="evenodd" d="M9.75 18.8C9.75 18.1057 9.50677 17.4197 9.19871 16.8185C8.88659 16.2095 8.47897 15.632 8.0854 15.1406C7.69001 14.6469 7.29661 14.225 7.00286 13.927C6.85555 13.7775 6.7322 13.6582 6.64475 13.5753C6.601 13.5339 6.56615 13.5015 6.5417 13.479L6.51297 13.4527L6.50478 13.4452L6.50229 13.443L6.50089 13.4417C6.50076 13.4416 6.50089 13.4417 6 14C5.4668 13.4725 5.4669 13.4724 5.4668 13.4725L5.46565 13.4737L5.46341 13.4759L5.45574 13.4838L5.42806 13.5122C5.40433 13.5366 5.37023 13.572 5.32726 13.6172C5.24135 13.7077 5.11972 13.8378 4.97424 13.9992C4.68401 14.3211 4.29523 14.7712 3.90461 15.2811C3.51604 15.7884 3.11379 16.3702 2.80548 16.9543C2.50677 17.5202 2.25 18.1729 2.25 18.8C2.25 20.9352 3.88407 22.75 6 22.75C8.11593 22.75 9.75 20.9352 9.75 18.8ZM5.09539 16.1933C5.42791 15.7592 5.76201 15.3685 6.02577 15.0733C6.2813 15.337 6.59874 15.6839 6.9146 16.0782C7.27103 16.5233 7.61341 17.0141 7.86379 17.5026C8.11823 17.9992 8.25 18.4402 8.25 18.8C8.25 20.1994 7.19778 21.25 6 21.25C4.80222 21.25 3.75 20.1994 3.75 18.8C3.75 18.5433 3.86823 18.1542 4.13202 17.6545C4.38621 17.1729 4.73396 16.6651 5.09539 16.1933Z" fill="black"/>
<path d="M13 18.25C13.6238 18.25 14.2414 18.3728 14.8177 18.6116C15.394 18.8503 15.9177 19.2001 16.3588 19.6412C16.7998 20.0823 17.1497 20.6059 17.3884 21.1822C17.6271 21.7585 17.75 22.3762 17.75 23H16.25C16.25 22.5732 16.1659 22.1506 16.0026 21.7563C15.8393 21.3619 15.5999 21.0037 15.2981 20.7019C14.9963 20.4001 14.638 20.1607 14.2437 19.9974C13.8494 19.834 13.4268 19.75 13 19.75V18.25Z" fill="black"/>
<path d="M17.1138 13.0683C15.8096 12.528 14.4117 12.25 13 12.25V13.75C14.2147 13.75 15.4176 13.9892 16.5398 14.4541C17.6621 14.9189 18.6818 15.6003 19.5407 16.4592C20.3997 17.3182 21.081 18.3379 21.5459 19.4602C22.0107 20.5824 22.25 21.7853 22.25 23H23.75C23.75 21.5883 23.4719 20.1904 22.9317 18.8861C22.3915 17.5819 21.5996 16.3968 20.6014 15.3986C19.6032 14.4004 18.4181 13.6085 17.1138 13.0683Z" fill="black"/>
<path d="M15.9658 15.8399C15.0255 15.4504 14.0177 15.25 13 15.25V16.75C13.8208 16.75 14.6335 16.9116 15.3918 17.2257C16.1501 17.5398 16.8391 18.0002 17.4194 18.5806C17.9998 19.1609 18.4602 19.8499 18.7742 20.6082C19.0883 21.3665 19.25 22.1792 19.25 23H20.75C20.75 21.9822 20.5495 20.9745 20.1601 20.0342C19.7706 19.0939 19.1997 18.2396 18.4801 17.5199C17.7604 16.8002 16.9061 16.2294 15.9658 15.8399Z" fill="black"/>
</svg>
