<svg width="24" height="24" viewBox="0 0 24 24" fill="none" xmlns="http://www.w3.org/2000/svg">
<path d="M2.61901 2.64614C2.26222 2.43573 2.14356 1.97592 2.35398 1.61913C2.56439 1.26234 3.0242 1.14368 3.38099 1.35409L9.4085 4.90878C9.80029 5.13984 10.2867 5.13984 10.6785 4.90878L12.5596 3.79941C13.4215 3.29109 14.4915 3.29108 15.3535 3.79941L20.25 6.6871V5.50012C20.25 5.08591 20.5858 4.75012 21 4.75012C21.4142 4.75012 21.75 5.08591 21.75 5.50012V7.98746L21.7501 8.00079L21.75 8.01419V9.25012H18C17.5858 9.25012 17.25 8.91433 17.25 8.50012C17.25 8.08591 17.5858 7.75012 18 7.75012H19.0997L14.5915 5.09146C14.1997 4.8604 13.7133 4.8604 13.3215 5.09146L11.4404 6.20083C10.5785 6.70915 9.50846 6.70915 8.64652 6.20083L2.61901 2.64614Z" fill="black"/>
<path fill-rule="evenodd" clip-rule="evenodd" d="M1.25 8.25H7.75V11.25H11.25V10.25H17.75V13.25H22.75V21.75H1.25V8.25ZM16.25 20.25V11.75H12.75V20.25H16.25ZM17.75 20.25H21.25V14.75H17.75V20.25ZM7.75 12.75H11.25V20.25H7.75V12.75ZM6.25 20.25V9.75H2.75V20.25H6.25Z" fill="black"/>
</svg>
