<svg width="24" height="24" viewBox="0 0 24 24" fill="none" xmlns="http://www.w3.org/2000/svg">
<path d="M11.25 1V5H12.75V1H11.25Z" fill="#121615"/>
<path d="M6.62404 2.58397L8.62404 5.58397L7.37596 6.41603L5.37596 3.41603L6.62404 2.58397Z" fill="#121615"/>
<path d="M15.376 5.58397L17.376 2.58397L18.624 3.41603L16.624 6.41603L15.376 5.58397Z" fill="#121615"/>
<path fill-rule="evenodd" clip-rule="evenodd" d="M1.25225 5.79369L5.32007 7.24649C5.81351 7.42271 6.17921 7.79797 6.35849 8.25H10.8512C11.8019 7.73638 12.9505 7.64755 13.9962 8.0551L17.5957 9.45798C17.7687 8.98015 18.1474 8.58211 18.6625 8.40151L23.2518 6.79225L23.7482 8.20775L19.1588 9.81701C19.0318 9.86155 18.9628 9.99867 19.0028 10.1272L21.1641 17.0743C21.1966 17.1788 21.2934 17.25 21.4028 17.25H24V18.75H21.4028C20.8616 18.75 20.3648 18.5013 20.0395 18.0974C20.2239 18.7959 19.967 19.5824 19.3008 20.0152L18.9944 20.2142C18.7891 20.3476 18.5639 20.4332 18.3334 20.4722L17.364 20.9892C16.9629 21.2031 16.5264 21.3093 16.0921 21.3127L15.1237 21.8714C14.6711 22.1326 14.1688 22.2523 13.6734 22.2384L12.4102 22.7437C11.4546 23.1259 10.3655 22.9426 9.58778 22.2685L3.13225 16.6738C2.9694 16.7235 2.79747 16.75 2.62095 16.75H0V15.25H2.62095C2.72754 15.25 2.82241 15.1824 2.85723 15.0817L4.96776 8.97621C5.01255 8.84666 4.94466 8.7052 4.81557 8.6591L0.747748 7.20631L1.25225 5.79369ZM11.7569 21.385L9.46204 19.0226L10.538 17.9774L12.8529 20.3604C13.2211 20.7394 13.7835 20.8429 14.2579 20.6314C14.2362 20.6124 14.2147 20.593 14.1935 20.5732L11.4883 18.0483L12.5117 16.9517L15.2169 19.4766C15.5685 19.8047 16.0728 19.8991 16.5138 19.7313L13.5024 17.0612L14.4976 15.9388L17.8753 18.9337C17.9594 19.0083 18.083 19.0176 18.1773 18.9563L18.4837 18.7573C18.6227 18.667 18.637 18.4689 18.5124 18.3596L12.9464 13.4787C12.9008 13.4387 12.8422 13.4167 12.7815 13.4167H11.4015C11.3532 13.4167 11.3059 13.4307 11.2654 13.457L9.86118 14.3691C9.41841 14.6567 8.86946 14.7291 8.36731 14.566L8.23097 14.5217C7.02689 14.1306 6.62363 12.6299 7.4695 11.688L9.2099 9.75H6.28737L4.27492 15.5717C4.26545 15.5991 4.25534 15.6262 4.24462 15.6529L10.5702 21.135C10.8979 21.419 11.3471 21.5114 11.7569 21.385ZM17.7423 11.125L13.4515 9.4527C12.5786 9.11251 11.5863 9.34875 10.9604 10.0458L8.58554 12.6902C8.4647 12.8248 8.52231 13.0392 8.69432 13.0951L8.83066 13.1393C8.9024 13.1626 8.98082 13.1523 9.04407 13.1112L10.4483 12.1991C10.732 12.0148 11.0632 11.9167 11.4015 11.9167H12.7815C13.2061 11.9167 13.6162 12.071 13.9354 12.3509L19.5013 17.2319C19.5782 17.2993 19.6475 17.3715 19.7094 17.4476L17.7423 11.125Z" fill="#121615"/>
</svg>
