<svg width="25" height="24" viewBox="0 0 25 24" fill="none" xmlns="http://www.w3.org/2000/svg">
<path d="M13.5135 3.38958C12.6553 2.6094 11.3447 2.6094 10.4865 3.38958L1.5045 11.555L0.495495 10.4451L4.28504 7.00006H4.25V2.00006H5.75V5.66828L9.47748 2.27967C10.9078 0.97937 13.0922 0.979367 14.5225 2.27967L18.0102 5.45029L20.2141 7.5382L19.1825 8.62713L16.9898 6.54982L13.5135 3.38958Z" fill="#121615"/>
<path d="M0 21.2501H3.25V11.0001H4.75V21.2501H10V22.7501H0V21.2501Z" fill="#121615"/>
<path fill-rule="evenodd" clip-rule="evenodd" d="M12.7034 7.73978C12.5945 7.44546 12.3138 7.25006 12 7.25006C11.6862 7.25006 11.4055 7.44546 11.2966 7.73978L10.9651 8.63579C10.7372 9.25165 10.2516 9.73723 9.63573 9.96512L8.73972 10.2967C8.4454 10.4056 8.25 10.6862 8.25 11.0001C8.25 11.3139 8.4454 11.5945 8.73972 11.7034L9.63573 12.035C10.2516 12.2629 10.7372 12.7485 10.9651 13.3643L11.2966 14.2603C11.4055 14.5547 11.6862 14.7501 12 14.7501C12.3138 14.7501 12.5945 14.5547 12.7034 14.2603L13.0349 13.3643C13.2628 12.7485 13.7484 12.2629 14.3643 12.035L15.2603 11.7034C15.5546 11.5945 15.75 11.3139 15.75 11.0001C15.75 10.6862 15.5546 10.4056 15.2603 10.2967L14.3643 9.96512C13.7484 9.73723 13.2628 9.25165 13.0349 8.63579L12.7034 7.73978ZM10.8972 11.0001C11.3379 10.7139 11.7138 10.338 12 9.89726C12.2862 10.338 12.6621 10.7139 13.1028 11.0001C12.6621 11.2863 12.2862 11.6621 12 12.1029C11.7138 11.6621 11.3379 11.2863 10.8972 11.0001Z" fill="#121615"/>
<path d="M16.3793 21.7285L24.0483 13.5118L22.9517 12.4883L15.2828 20.705C15.1839 20.8109 15.0161 20.8109 14.9172 20.705L12.0483 17.6312L10.9517 18.6547L13.8207 21.7285C14.5125 22.4698 15.6875 22.4698 16.3793 21.7285Z" fill="#121615"/>
</svg>
